<svg width="214" height="216" viewBox="0 0 214 216" fill="none" xmlns="http://www.w3.org/2000/svg"><path d="M188.506 78.73c-1.253-3.992-2.81-7.89-4.828-11.638-10.179-18.915-28.027-33.181-47.549-41.611-15.497-6.691-34.666-10.19-51.11-4.163-8.315 3.048-16.142 8.9-20.601 16.674-5.823 10.152-5.262 22.75-9.875 33.419-3.739 8.646-13.04 13.843-20.327 19.153-11.37 8.284-22.567 18.085-26.51 32.103-5.26 18.704-3.704 40.948 6.954 57.569 7.949 12.396 21.561 16.12 35.606 16.375 3.665.067 7.555-.14 11.527-.348 10.394-.544 21.35-1.087 30.308 3.288 21.075 10.292 48.885 21.843 72.465 13.697 24.302-8.395 36.232-24.744 39.767-45.953 3.535-21.209-6.186-38.883-9.279-55.677-1.953-10.602-3.228-22.319-6.548-32.888z" fill="#FFEEE9"/><path d="M11.189 142.41c-.12-1.353-.148-2.597-.164-3.699a53.1 53.1 0 01.02-1.723c.485-.394 2.416-2.008 2.956-3.099.527-1.064.9-2.571.33-3.711-.557-1.115-1.927-1.655-3.015-.978-1.511.939-1.637 4.167-1.232 5.723.035.134.824 2.176.85 2.156l.029-.024a48.345 48.345 0 00.03 5.365c.014.228.033.462.05.696.168.256.265.416.265.416-.04-.376-.088-.762-.12-1.122zM6.329 138.982c-2.03.333-2.291 2.237-.398 3.451 1.604 1.03 4.345 1.103 5.144 1.101-.012-.142-.021-.279-.032-.418-.767-1.173-3.049-4.408-4.714-4.134zM46.715 130.05c-1.792-.058-3.679 2.535-4.194 4.043-.045.13-.507 2.25-.474 2.248l.038-.004c-.301.407-.62.847-.957 1.336-.617.906-1.304 1.935-1.977 3.108-.076.132-.154.271-.23.406-.034.326-.061.522-.061.522l-.162-.128c-.53.952-1.059 1.977-1.536 3.088-.618 1.43-1.193 2.968-1.58 4.631l-.012.058a49.405 49.405 0 00-.219-2.099c-.349-1.568-1.94-4.407-3.725-4.6-1.286-.139-2.266.933-2.255 2.172.012 1.266 1.036 2.456 1.996 3.184 1.083.821 3.94 1.48 4.168 1.532a37.305 37.305 0 00-.732 4.945 66.94 66.94 0 00-.178 2.93 23.815 23.815 0 00-.107-.912c-.35-1.568-1.941-4.407-3.725-4.6-1.286-.14-2.267.933-2.255 2.172.011 1.266 1.036 2.456 1.996 3.184.974.739 3.4 1.349 4.044 1.502-.012.377-.028.754-.039 1.131-.05 1.81-.093 3.617-.19 5.387-.033.624-.09 1.236-.143 1.85a18.925 18.925 0 00-.094-.791c-.349-1.568-1.94-4.407-3.725-4.601-1.286-.139-2.266.934-2.255 2.172.011 1.266 1.036 2.457 1.996 3.185.93.704 3.164 1.288 3.929 1.473-.051.431-.105.859-.165 1.283.272.078.549.146.83.202.104-.816.187-1.643.248-2.479.666.187 3.042.816 4.227.643 1.18-.173 2.629-.722 3.22-1.831.58-1.086.208-2.508-.988-3.013-1.661-.701-4.367 1.023-5.394 2.234a47.37 47.37 0 00-1.043 1.559c.04-.611.083-1.221.103-1.84.059-1.79.062-3.603.073-5.412.003-.554.014-1.106.021-1.659.237.07 3.045.878 4.373.684 1.179-.172 2.629-.721 3.22-1.83.579-1.085.208-2.509-.989-3.013-1.66-.701-4.366 1.023-5.393 2.233a47.357 47.357 0 00-1.21 1.825c.018-1.217.047-2.429.124-3.623.104-1.647.297-3.255.599-4.798.11.033 3.038.89 4.397.691 1.18-.172 2.63-.721 3.22-1.83.58-1.085.209-2.509-.988-3.013-1.66-.701-4.367 1.023-5.394 2.233a44.357 44.357 0 00-1.224 1.854c.018-.092.027-.189.046-.28.344-1.642.884-3.187 1.46-4.607.334-.827.7-1.596 1.072-2.337.53.215 2.961 1.173 4.207 1.13 1.193-.042 2.697-.427 3.407-1.462.696-1.014.483-2.467-.653-3.099-1.577-.878-4.46.535-5.616 1.624-.063.058-.634.732-1.043 1.229.173-.332.346-.678.518-.992a47.316 47.316 0 012.87-4.552c.625-.058 3.143-.325 4.2-.927 1.031-.587 2.177-1.625 2.326-2.879.145-1.228-.713-2.43-2.003-2.472z" fill="#2C2832"/><path d="M22.119 168.662l.358.722c.27-.092.537-.179.798-.264a51.11 51.11 0 00-.951-1.801c.653-.21 2.96-.991 3.842-1.791.878-.797 1.772-2.059 1.648-3.321-.121-1.234-1.212-2.23-2.478-1.994-1.756.326-3.039 3.272-3.218 4.86a49.21 49.21 0 000 1.89c-.305-.538-.606-1.075-.93-1.608-.94-1.541-1.936-3.071-2.925-4.602-.303-.469-.599-.94-.898-1.41.234-.072 2.997-.941 3.986-1.837.878-.796 1.771-2.059 1.648-3.321-.121-1.234-1.213-2.229-2.478-1.994-1.757.326-3.04 3.273-3.22 4.86-.013.12-.011 1.782.01 2.206a74.18 74.18 0 01-1.897-3.123 37.93 37.93 0 01-2.152-4.375c.11-.033 2.998-.926 4.01-1.844.878-.796 1.772-2.06 1.648-3.32-.121-1.236-1.212-2.23-2.478-1.996-1.757.327-3.039 3.273-3.218 4.861-.015.125-.012 1.914.011 2.239-.035-.088-.081-.175-.116-.262-.622-1.575-1.028-3.175-1.336-4.69a31.849 31.849 0 01-.405-2.562c.556-.11 3.091-.645 4.095-1.369.962-.694 1.99-1.848 2.005-3.113.015-1.239-.962-2.346-2.248-2.252-1.785.131-3.385 2.913-3.738 4.469-.02.085-.12.967-.183 1.612 0 0-.088.002-.232.002.087 1.039.213 2.132.42 3.262.28 1.546.651 3.16 1.25 4.777l.023.054a50.182 50.182 0 00-1.339-1.648c-1.152-1.129-4.032-2.644-5.61-1.822-1.139.592-1.356 2.037-.663 3.076.707 1.061 2.21 1.498 3.403 1.582 1.346.095 4.068-.927 4.284-1.009a38.309 38.309 0 002.123 4.572 69.68 69.68 0 001.469 2.57c-.29-.356-.55-.671-.592-.711-1.152-1.129-4.032-2.644-5.61-1.822-1.139.593-1.356 2.038-.663 3.076.707 1.06 2.21 1.498 3.403 1.582 1.211.085 3.55-.739 4.166-.966.198.325.392.651.591.975.957 1.554 1.918 3.101 2.814 4.646.317.544.608 1.091.902 1.638a19.846 19.846 0 00-.514-.615c-1.152-1.129-4.031-2.644-5.61-1.821-1.138.592-1.355 2.037-.663 3.075.707 1.06 2.21 1.499 3.403 1.582 1.156.081 3.322-.66 4.055-.925zM37.873 135.037c-1.785-1.023-3.19.288-2.489 2.425.6 1.831 2.718 3.638 3.314 4.119.074-.134.148-.263.223-.394.146-1.421.404-5.317-1.048-6.15zM145.748 209.246c-1.974.05-3.886 3.041-4.359 4.741a48.716 48.716 0 00-.281 1.725c.932.085 1.862.153 2.792.2.709-.195 1.389-.438 1.827-.723 1.096-.715 2.291-1.937 2.376-3.335.083-1.368-.934-2.643-2.355-2.608zM128.714 182.773c-2.273.01-2.889 2.042-1.036 3.697 1.571 1.402 4.548 1.959 5.421 2.097.011-.157.024-.308.038-.462-.633-1.413-2.558-5.34-4.423-5.332zM165.318 208.908c.821-1.084.665-2.701-.553-3.459-1.689-1.054-4.942.354-6.273 1.496-.1.086-1.339 1.425-1.637 1.78a81.25 81.25 0 01.765-3.93c.401-1.779.892-3.5 1.491-5.13.114.054 3.158 1.5 4.676 1.52 1.317.018 2.994-.328 3.832-1.435.821-1.084.664-2.701-.553-3.46-1.69-1.054-4.942.355-6.273 1.497a49.76 49.76 0 00-1.659 1.808c.036-.097.063-.2.099-.297.662-1.732 1.52-3.323 2.397-4.771a34.381 34.381 0 011.576-2.363c.54.327 3.025 1.796 4.391 1.966 1.31.162 3.017.005 3.973-1.001.936-.984.956-2.607-.173-3.494-1.567-1.232-4.959-.194-6.409.792-.079.054-.82.689-1.352 1.159.247-.331.495-.678.738-.991.908-1.177 1.814-2.198 2.622-3.096.464-.506.894-.955 1.302-1.37.692.046 3.485.194 4.743-.278 1.227-.461 2.659-1.394 3.039-2.736.372-1.315-.353-2.775-1.754-3.046-1.944-.375-4.455 2.125-5.28 3.679-.071.134-.944 2.367-.908 2.37l.042.003c-.4.392-.824.816-1.277 1.29-.83.88-1.761 1.884-2.698 3.045-.107.132-.215.27-.322.404-.094.349-.159.558-.159.558s-.059-.062-.153-.167c-.744.946-1.5 1.972-2.214 3.1-.923 1.453-1.819 3.03-2.531 4.777l-.022.061c.049-.578.133-2.202.126-2.327-.107-1.771-1.349-5.146-3.262-5.668-1.378-.376-2.635.623-2.839 1.977-.207 1.382.703 2.86 1.624 3.821 1.037 1.084 4.04 2.301 4.279 2.398-.663 1.67-1.208 3.441-1.66 5.266a74.672 74.672 0 00-.706 3.166c.026-.502.046-.951.043-1.015-.108-1.77-1.349-5.145-3.262-5.667-1.379-.376-2.635.623-2.839 1.977-.208 1.383.703 2.86 1.623 3.821.934.975 3.474 2.065 4.15 2.344-.079.409-.162.817-.239 1.226-.318 1.682-.634 3.356-.976 5.004.28-.037.56-.075.84-.116.287-1.576.554-3.165.818-4.755.1-.604.207-1.204.312-1.806.246.117 3.168 1.489 4.65 1.509 1.317.017 2.994-.329 3.832-1.436z" fill="#2C2832"/><path d="M163.811 183.968c-1.769-1.427-3.53-.241-3.138 2.212.336 2.102 2.332 4.442 2.898 5.071l.311-.391c.408-1.525 1.368-5.73-.071-6.892zM133.417 187.36c.104-1.496.291-2.858.467-4.063.105-.684.214-1.301.322-1.876.597-.345 2.985-1.77 3.764-2.866.76-1.069 1.43-2.648 1.007-3.99-.414-1.314-1.814-2.142-3.119-1.593-1.812.762-2.512 4.261-2.341 6.028.015.152.52 2.518.55 2.5l.036-.02a59.413 59.413 0 00-.345 1.794c-.203 1.203-.42 2.564-.557 4.063-.023.25-.044.51-.065.768.138.309.216.5.216.5.021-.417.036-.847.065-1.245zM134.003 212.647c-.854.284-1.359 1.008-1.47 1.82 2.415.475 4.834.852 7.248 1.113-1.078-1.432-3.926-3.55-5.778-2.933zM150.99 211.798c-1.378-.377-2.635.623-2.838 1.977-.112.742.103 1.508.464 2.21a58.017 58.017 0 005.267-.352c-.515-1.653-1.533-3.464-2.893-3.835z" fill="#2C2832"/><path d="M140.325 214.133c-.755-1.844-1.576-3.687-2.388-5.531-.249-.564-.49-1.129-.734-1.694.267-.038 3.434-.503 4.668-1.309 1.097-.715 2.292-1.937 2.376-3.334.083-1.369-.933-2.644-2.355-2.609-1.973.05-3.886 3.041-4.359 4.741a55.872 55.872 0 00-.375 2.408 83.471 83.471 0 01-1.524-3.736 41.967 41.967 0 01-1.584-5.149c.124-.017 3.431-.488 4.695-1.312 1.097-.716 2.292-1.938 2.376-3.335.083-1.369-.933-2.644-2.355-2.608-1.973.049-3.885 3.04-4.358 4.74a49.323 49.323 0 00-.378 2.444c-.023-.101-.059-.204-.081-.305-.404-1.826-.569-3.642-.639-5.349-.044-.992-.03-1.942.004-2.865.626-.024 3.484-.165 4.705-.78 1.171-.589 2.494-1.669 2.731-3.047.232-1.348-.641-2.727-2.06-2.848-1.97-.169-4.201 2.588-4.858 4.223a48.775 48.775 0 00-.479 1.727s-.098-.013-.254-.038a37.711 37.711 0 00-.111 3.631c.036 1.736.161 3.561.532 5.429l.015.063a56.088 56.088 0 00-1.173-2.031c-1.061-1.432-3.938-3.586-5.804-2.965-1.344.448-1.833 1.987-1.258 3.24.587 1.28 2.149 2.02 3.437 2.318 1.451.338 4.599-.302 4.849-.354.369 1.776.891 3.57 1.519 5.358a73.752 73.752 0 001.154 3.059 25.73 25.73 0 00-.521-.878c-1.06-1.433-3.938-3.586-5.803-2.965-1.345.447-1.834 1.986-1.259 3.239.587 1.281 2.149 2.02 3.437 2.319 1.306.304 4.001-.187 4.712-.327.159.389.314.778.476 1.166.772 1.862 1.551 3.717 2.259 5.559.152.392.292.784.43 1.175.312.033.625.064.937.093a52.744 52.744 0 00-.602-1.563z" fill="#2C2832"/><path d="M143.734 54.89c.38.21.729.468 1.04.766l.324-.337a5.381 5.381 0 00-1.139-.838l-.225.41zm1.916 1.896c.403.713.633 1.536.633 2.415a4.9 4.9 0 01-1.441 3.478 4.903 4.903 0 01-3.477 1.44 4.9 4.9 0 01-3.478-1.44 4.9 4.9 0 01-1.441-3.478 4.9 4.9 0 011.441-3.478 4.898 4.898 0 014.185-1.39l.067-.463a5.387 5.387 0 103.919 2.686l-.408.23zm-6.759 10.346l.337 2.027 2.417.211.681-1.92-.221-.078.021.233a8.39 8.39 0 002.035-.441l-.078-.22-.166.163 1.424 1.447 2.1-1.212-.539-1.952-.225.062.151.178a8.475 8.475 0 001.412-1.538l-.19-.136-.043.23 1.994.368 1.024-2.199-1.563-1.29-.149.18.227.058c.169-.661.26-1.353.263-2.065l-.234-.001.097.213 1.857-.846-.421-2.39-2.048-.158-.018.233.218-.083a8.363 8.363 0 00-.961-1.82l-.192.133.202.12 1.055-1.783-1.716-1.716-1.795 1.066.119.201.131-.193a8.382 8.382 0 00-3.218-1.313l-.042.23.227-.058-.518-2.048h-2.428l-.519 2.06.226.057-.044-.23a8.384 8.384 0 00-1.909.607l.098.213.152-.177-1.612-1.396-1.989 1.392.761 1.996.218-.083-.166-.164a8.457 8.457 0 00-1.219 1.582l.2.12.025-.233-2.125-.219-.83 2.281 1.759 1.194.131-.194-.23-.038c-.078.458-.12.928-.12 1.408 0 .203.01.402.024.596l.233-.016-.114-.204-1.851 1.034.627 2.344 2.098-.027-.003-.233-.212.1a8.48 8.48 0 001.082 1.72l.182-.147-.211-.102-.905 1.882 1.859 1.56 1.679-1.203-.272-.38-1.385.991-1.302-1.093.812-1.688-.093-.115a7.938 7.938 0 01-1.022-1.626l-.064-.135-1.885.024-.439-1.641 1.662-.929-.01-.148a8.19 8.19 0 01-.022-.564c0-.453.04-.897.113-1.33l.025-.15-1.582-1.072.581-1.596 1.91.197.076-.129a8.047 8.047 0 011.152-1.493l.105-.107-.685-1.796 1.391-.974 1.451 1.256.136-.063a7.925 7.925 0 011.803-.572l.146-.028.467-1.852h1.7l.465 1.842.149.027c1.11.2 2.14.63 3.039 1.24l.122.083 1.611-.956 1.202 1.202-.946 1.6.085.123c.369.53.676 1.106.908 1.719l.053.138 1.834.143.296 1.675-1.664.758-.001.15a7.931 7.931 0 01-.249 1.95l-.037.144 1.4 1.156-.719 1.542-1.784-.329-.087.121a7.956 7.956 0 01-1.334 1.454l-.113.097.482 1.747-1.474.85-1.274-1.295-.14.05a7.934 7.934 0 01-1.922.416l-.149.013-.61 1.721-1.695-.148-.277-1.67-.462.077zM148.608 160.236c.38.209.729.467 1.039.766l.324-.337a5.381 5.381 0 00-1.138-.839l-.225.41zm1.916 1.896c.403.713.632 1.537.632 2.415 0 1.359-.55 2.587-1.44 3.478a4.903 4.903 0 01-3.478 1.44 4.9 4.9 0 01-3.477-1.44 4.9 4.9 0 01-1.441-3.478 4.9 4.9 0 011.441-3.478 4.9 4.9 0 014.184-1.39l.067-.462a5.385 5.385 0 10-.774 10.716 5.385 5.385 0 004.693-8.031l-.407.23zm-6.759 10.346l.337 2.026 2.417.212.68-1.921-.221-.077.022.233a8.492 8.492 0 002.035-.441l-.078-.221-.166.164 1.424 1.447 2.1-1.213-.539-1.951-.225.062.151.179a8.522 8.522 0 001.412-1.539l-.191-.136-.042.23 1.994.367 1.024-2.198-1.563-1.291-.149.18.227.058a8.466 8.466 0 00.262-2.065l-.233-.001.097.213 1.857-.846-.421-2.389-2.048-.158-.018.233.218-.083a8.355 8.355 0 00-.961-1.821l-.192.134.201.119 1.055-1.782-1.715-1.716-1.795 1.066.119.201.131-.193a8.391 8.391 0 00-3.218-1.314l-.042.23.227-.057-.519-2.048h-2.427l-.52 2.06.226.057-.043-.23a8.375 8.375 0 00-1.908.606l.096.213.153-.177-1.613-1.395-1.989 1.392.762 1.996.218-.083-.166-.164a8.42 8.42 0 00-1.219 1.582l.2.119.024-.232-2.124-.219-.83 2.282 1.759 1.193.131-.194-.231-.039a8.487 8.487 0 00-.119 1.409c0 .202.01.401.024.597l.233-.017-.114-.204-1.852 1.034.628 2.344 2.098-.027-.003-.234-.212.1a8.494 8.494 0 001.082 1.72l.182-.147-.211-.101-.906 1.882 1.859 1.56 1.679-1.203-.272-.381-1.384.992-1.303-1.093.813-1.688-.093-.115a7.944 7.944 0 01-1.022-1.625l-.064-.137-1.885.024-.44-1.641 1.664-.928-.011-.149a7.567 7.567 0 01.091-1.894l.025-.148-1.582-1.073.581-1.597 1.91.197.076-.128a7.967 7.967 0 011.152-1.494l.105-.107-.686-1.795 1.392-.974 1.451 1.255.136-.062a7.922 7.922 0 011.802-.572l.147-.028.467-1.852h1.699l.466 1.842.149.026a7.92 7.92 0 013.039 1.241l.122.083 1.611-.956 1.202 1.202-.946 1.6.085.123c.369.53.675 1.106.908 1.719l.053.138 1.834.142.295 1.676-1.663.758-.001.15a7.978 7.978 0 01-.249 1.95l-.037.144 1.4 1.156-.72 1.542-1.783-.329-.087.121a7.97 7.97 0 01-1.334 1.454l-.113.097.482 1.746-1.474.851-1.274-1.295-.14.05a8.007 8.007 0 01-1.922.416l-.15.013-.609 1.721-1.695-.149-.278-1.668-.461.076zM164.288 54.025a4.914 4.914 0 01-4.146 2.272 4.904 4.904 0 01-3.478-1.44 4.902 4.902 0 01-1.44-3.479c0-1.358.55-2.587 1.44-3.477a4.902 4.902 0 013.478-1.44c1.359 0 2.587.55 3.478 1.44a4.907 4.907 0 011.428 3.836l.466.034a5.385 5.385 0 10-10.758-.393 5.386 5.386 0 009.926 2.9l-.394-.253zm.668-1.632a4.9 4.9 0 01-.3.942l.429.186c.142-.328.253-.674.328-1.032l-.457-.096zm-11.955-5.511a6.602 6.602 0 00-.108.177l.2.12.024-.233-2.124-.218-.83 2.28 1.758 1.194.132-.193-.231-.039a8.293 8.293 0 00-.096 2.005l.233-.017-.114-.204-1.851 1.034.628 2.345 2.097-.028-.002-.233-.212.1a8.465 8.465 0 001.082 1.72l.182-.147-.211-.101-.906 1.881 1.859 1.56 1.68-1.203-.136-.19-.117.203c.591.34 1.227.61 1.898.801l.064-.225-.231.039.337 2.026 2.417.212.68-1.92-.221-.079.021.233a8.375 8.375 0 002.035-.44l-.077-.221-.167.164 1.424 1.447 2.101-1.213-.539-1.951-.226.062.152.178a8.507 8.507 0 001.412-1.539l-.191-.136-.042.23 1.993.368 1.025-2.198-1.564-1.291-.148.18.226.058c.17-.66.26-1.353.263-2.065h-.234l.097.212 1.858-.846-.421-2.39-2.049-.158-.018.233.219-.083a8.46 8.46 0 00-.961-1.82l-.192.134.201.119 1.055-1.782-1.716-1.716-1.795 1.065.12.201.131-.193a8.404 8.404 0 00-3.218-1.313l-.042.23.227-.058-.519-2.048h-2.428l-.519 2.06.227.057-.044-.23a8.364 8.364 0 00-1.909.607l.097.213.153-.177-1.613-1.396-1.989 1.392.278.73.437-.167-.148-.388 1.391-.975 1.451 1.256.137-.062a7.907 7.907 0 011.802-.573l.147-.028.467-1.851h1.699l.466 1.841.148.027c1.11.2 2.14.63 3.039 1.24l.123.083 1.611-.956 1.202 1.203-.947 1.599.086.123c.369.53.675 1.107.908 1.72l.053.138 1.834.142.295 1.676-1.664.757v.15a7.98 7.98 0 01-.249 1.95l-.037.144 1.399 1.156-.719 1.542-1.784-.329-.086.121a8.036 8.036 0 01-1.334 1.455l-.114.096.483 1.747-1.474.85-1.275-1.294-.139.049a7.911 7.911 0 01-1.922.416l-.15.013-.609 1.721-1.695-.148-.302-1.815-.142-.04a7.954 7.954 0 01-1.793-.757l-.13-.076-1.507 1.08-1.303-1.094.813-1.687-.094-.116a8.025 8.025 0 01-1.022-1.625l-.064-.136-1.884.024-.44-1.641 1.663-.929-.01-.148a8.195 8.195 0 01-.023-.564c0-.453.04-.897.113-1.33l.025-.149-1.581-1.072.58-1.597 1.91.197.077-.128c.033-.057.068-.112.103-.167l-.396-.25zm.789-1.865l.27.708.218-.084-.167-.163a8.278 8.278 0 00-.402.44l.356.304c.122-.143.249-.283.381-.417l.104-.107-.323-.848-.437.167zM42.993 89.522c4.99.224 8.969 4.34 8.968 9.386a9.362 9.362 0 01-2.752 6.644 9.362 9.362 0 01-6.643 2.752 9.363 9.363 0 01-6.644-2.752 9.365 9.365 0 01-2.752-6.644c0-3.829 2.29-7.122 5.576-8.586l-.19-.427a9.865 9.865 0 00-5.853 9.013c0 5.448 4.416 9.864 9.863 9.864 5.447 0 9.863-4.416 9.863-9.864 0-5.296-4.175-9.618-9.415-9.853l-.02.467zm-3.572.53c.405-.144.823-.26 1.251-.348l-.094-.458c-.45.092-.888.214-1.314.366l.157.44zm-8.977 18.411l-1.625 3.374 3.233 2.713 3.01-2.157-.136-.19-.117.203a15.497 15.497 0 003.502 1.478l.064-.225-.23.039.603 3.632 4.203.367 1.22-3.441-.221-.078.02.233a15.431 15.431 0 003.755-.813l-.077-.22-.167.164 2.551 2.593 3.653-2.11-.965-3.496-.225.063.151.177a15.607 15.607 0 002.605-2.839l-.19-.135-.043.23 3.571.658 1.783-3.823-2.801-2.313-.15.18.227.058c.313-1.219.48-2.495.486-3.809H57.9l.097.212 3.328-1.516-.733-4.155-3.67-.285-.018.233.218-.083a15.524 15.524 0 00-1.773-3.358l-.192.134.201.119 1.892-3.195-2.984-2.984-3.219 1.912.12.2.13-.193a15.48 15.48 0 00-5.937-2.423l-.041.23.226-.057-.93-3.675h-4.22l-.933 3.697.227.057-.044-.23a15.47 15.47 0 00-3.521 1.119l.097.213.153-.177-2.895-2.505-3.458 2.42 1.367 3.583.219-.083-.167-.164a15.618 15.618 0 00-2.25 2.918l.201.12.025-.233-3.813-.393-1.444 3.967 3.157 2.14.131-.193-.23-.039c-.142.845-.22 1.713-.22 2.6 0 .372.017.738.043 1.099l.233-.016-.114-.204-3.322 1.854 1.092 4.077 3.762-.049-.003-.233-.211.1c.406.862.889 1.68 1.44 2.447l.38-.273a15.107 15.107 0 01-1.397-2.374l-.064-.136-3.549.046-.904-3.373 3.134-1.75-.01-.148c-.026-.355-.043-.71-.043-1.068 0-.859.076-1.7.214-2.521l.025-.148-2.98-2.021 1.195-3.282 3.598.371.076-.127a15.17 15.17 0 012.182-2.831l.105-.107-1.29-3.381 2.86-2.003 2.732 2.365.137-.062c1.077-.49 2.22-.858 3.415-1.085l.146-.028.88-3.488h3.492l.878 3.467.148.028a15.012 15.012 0 015.758 2.35l.123.082 3.034-1.801 2.47 2.47-1.783 3.012.086.123a15.064 15.064 0 011.72 3.257l.052.138 3.457.269.607 3.441-3.135 1.428v.15a15.145 15.145 0 01-.47 3.695l-.038.144 2.637 2.177-1.477 3.168-3.361-.62-.087.121a15.16 15.16 0 01-2.527 2.754l-.114.097.91 3.291-3.027 1.748-2.402-2.441-.14.049a15.004 15.004 0 01-3.641.788l-.15.014-1.148 3.241-3.48-.304-.57-3.422-.142-.04c-1.2-.34-2.338-.824-3.396-1.433l-.13-.076-2.838 2.033-2.677-2.245 1.467-3.048-.421-.202z" fill="#FF5621"/><path d="M80.446 97.591l-3.822-2.47a.702.702 0 00-.761 1.178l3.821 2.47a.701.701 0 10.762-1.178zM87.163 90.213l-.992-.825a.702.702 0 00-.898 1.078l.993.825a.702.702 0 00.897-1.078zM75.714 111.847l-7.918-1.979a.701.701 0 10-.34 1.361l7.918 1.979a.701.701 0 10.34-1.361z" fill="#141414"/><path d="M89.502 92.773zm21.286 16.853c-1.795 1.194-3.567 2.383-5.223 3.494a979.143 979.143 0 01-8.702 5.787l2.577-1.589c9.469-5.838 23.148-14.271 27.167-17.332-1.03.419-2.528 1.227-4.316 2.284-1.599 1.117-3.632 2.46-6.209 4.085a363.934 363.934 0 01-5.294 3.271zM99.804 121.98c-4.29 2.593-8.457 5.131-11.199 6.892 1.382-.716 3.088-1.675 5-2.792a221.86 221.86 0 016.2-4.1zm31.017 3.124l-.988.626c-3.276 2.078-6.38 4.038-9.302 5.87 3.903-2.347 7.591-4.642 10.29-6.496zm4.394-13.727c-1.355.454-4.233 1.78-10.317 5.433-6.032 3.622-13.458 8.45-20.01 12.709a1610.285 1610.285 0 01-7.292 4.718c3.94-2.422 9.231-5.589 16.295-9.77 8.627-5.105 18.239-10.794 21.324-13.09zm-33.298 18.399a417.89 417.89 0 00-8.239 5.294 723.987 723.987 0 008.239-5.294zm23 10.493c-2.496 1.33-6.276 3.734-9.968 6.152l.386-.234c3.449-2.089 7.192-4.356 9.582-5.918zm.299-3.262c-4.588 2.543-12.01 7.324-17.654 10.967 2.08-1.296 4.445-2.76 7.135-4.416 3.703-2.281 7.691-4.737 10.519-6.551zm-17.394 12.453c-4.04 2.519-8.016 5.047-10.609 6.845 2.821-1.676 6.917-4.388 10.609-6.845zm17.269 7.14zm-6.751 4.597a.702.702 0 01-.608-.351c-.245-.425-.376-.652 1.599-2.915-4.256 2.605-4.711 2.495-4.958 2.435a.805.805 0 01-.482-.356c-.392-.679-.47-.812 7.408-7.259a412.36 412.36 0 00-3.744 2.477c-6.934 4.626-9.088 5.938-10.044 5.717a.855.855 0 01-.554-.405c-.422-.729-.422-.729 8.869-7.454l1.839-1.332a539.773 539.773 0 00-3.125 2.116c-7.325 4.982-10.663 7.134-11.911 6.851a.948.948 0 01-.619-.447c-.456-.79-.557-.967 12.977-10.165l-17.8 10.276a.7.7 0 01-.957-.256c-.313-.543-.068-1.206 1.219-2.344-2.05 1.177-3.239 1.653-3.824 1.513a.903.903 0 01-.588-.426c-.387-.671-.238-1.295 4.717-4.625-5.11 3.194-6.993 4.137-7.728 3.963a.821.821 0 01-.526-.387c-.34-.587-.024-.795 1.15-1.57.608-.4 1.49-.975 2.59-1.689 1.115-.724 2.455-1.59 3.954-2.559-4.36 2.264-5.012 2.107-5.376 2.02a.927.927 0 01-.594-.431.701.701 0 01.25-.954c13.726-8.136 34.919-21.191 40.029-25.51-5.097 2.315-20.322 11.776-29.016 17.177-11.173 6.942-11.223 6.929-11.7 6.808a.727.727 0 01-.445-.335c-.38-.658-.361-1.078 4.111-3.847-2.055.968-3.413 1.409-4.012 1.262a.982.982 0 01-.627-.455.701.701 0 01.23-.942c13.855-8.825 33.343-21.321 41.292-26.603-2.21 1.128-5.181 2.822-8.483 4.783a779.411 779.411 0 01-9.581 6.046 1418.645 1418.645 0 01-14.12 8.662c-10.068 6.348-10.187 6.32-10.678 6.2a.746.746 0 01-.454-.34.701.701 0 01.25-.954c3.03-1.802 6.377-3.811 9.849-5.913l1.822-1.15c-7.268 4.157-11.285 5.975-12.47 5.686a1.004 1.004 0 01-.661-.475c-.434-.751.187-1.702 5.31-5.054-3.306 2.018-4.616 2.617-5.172 2.48a.793.793 0 01-.51-.375c-.295-.509-.535-.925 2.891-3.419-1.844.926-3.009 1.315-3.566 1.18a.947.947 0 01-.609-.442.701.701 0 01.261-.961c15.175-8.63 38.157-22.294 45.156-27.809-7.676 4.236-28.833 16.66-43.598 25.415a.706.706 0 01-.966-.253c-.1-.172-.196-.461-.09-.851.103-.378.504-.897 1.154-1.534-1.09.445-1.82.606-2.237.504a.963.963 0 01-.618-.45c-.418-.725.385-1.284 1.6-2.13.912-.635 2.257-1.507 4.11-2.667 3.455-2.161 8.2-5.023 13.223-8.052 5.643-3.403 12.353-7.449 17.677-10.799-11.396 6.566-29.347 17.036-37.969 22.077a.707.707 0 01-.961-.255c-.362-.627-.47-.813 5.73-4.711-2.43 1.335-3.961 1.906-4.741 1.724a1.069 1.069 0 01-.71-.508c-.464-.803-.464-.803 10.782-7.337 5.206-3.025 11.419-6.635 17.133-10.105 4.798-3.188 8.553-5.618 11.403-7.296 2.343-1.636 3.585-2.663 4.241-3.302-5.84 2.624-28.91 16.572-43.515 25.644a.703.703 0 01-.964-.222.703.703 0 01.218-.966l4.525-2.879c-3.76 1.922-5.132 2.244-5.72 2.097a.964.964 0 01-.624-.45.702.702 0 01.23-.942c2.58-1.652 6.072-3.89 9.966-6.389-8.146 4.601-8.804 4.438-9.209 4.337a.807.807 0 01-.511-.379.7.7 0 01.238-.947c10.505-6.496 25.429-15.918 34.159-21.797-7.038 4.053-17.297 10.079-24.525 14.324-3.205 1.882-6.008 3.529-8.017 4.703-1.785 1.043-2.65 1.549-3.114 1.783l-.123.076-.008-.012c-.323.151-.402.13-.54.094a.7.7 0 01-.19-1.276c11.14-6.886 27.595-17.273 34.966-22.377-3.922 2.27-9.784 6.008-14.514 9.025-13.218 8.429-17.235 10.84-18.397 10.552a.84.84 0 01-.534-.393c-.293-.508-.502-.87 3.892-4.035-1.2.528-2.008.729-2.48.615a.998.998 0 01-.646-.467.701.701 0 01.234-.945c8.63-5.429 21.742-13.943 26.25-17.463-3.946 1.93-12.558 7.469-17.63 10.73-8.25 5.304-8.57 5.435-9.088 5.309a.756.756 0 01-.46-.343c-.371-.643-.699-1.212 7.408-6.788-1 .638-2.025 1.296-3.069 1.971-.141.091-.334.217-.628.145a.699.699 0 01-.442-.331c-.5-.866.222-1.61 5.913-5.973a.761.761 0 01-.498-.364.701.701 0 01.688-1.048c.404-.194 1.44-.92 2.145-1.416 2.28-1.6 2.927-1.987 3.486-1.862.223.049.408.183.52.377.404.7.092 1.123-3.747 4.09a430.187 430.187 0 013.262-2.017c10.814-6.616 11.649-6.419 12.148-6.298a.835.835 0 01.537.393.701.701 0 01-.236.945c-5.273 3.293-10.763 6.822-15.351 9.884 10.671-6.816 15.802-9.805 17.244-9.46.263.064.478.22.604.44.447.774.77 1.334-13.996 11.055-.708.465-1.418.931-2.122 1.39a782.274 782.274 0 008.434-5.42c9.475-6.15 11.005-7.05 11.722-6.88.208.05.38.177.483.357a.701.701 0 01-.23.943c-9.156 5.835-22.535 14.547-29.146 19.231 3.551-2.098 8.59-5.311 12.975-8.107 13.908-8.87 18.443-11.576 19.725-11.265a.864.864 0 01.552.406c.344.596.587 1.016-7.546 6.445 11.4-6.615 11.618-6.56 11.982-6.464a.72.72 0 01.435.332c.467.808.804 1.392-20.703 15.145-1.562.998-3.129 1.995-4.663 2.968 8.514-5.034 18.655-11.234 26.344-16.022a.7.7 0 01.978.245c.335.58-.156.923-.675 1.286-.318.223-.789.541-1.39.943a605.177 605.177 0 01-4.965 3.262 3572.51 3572.51 0 01-15.115 9.777A10544.98 10544.98 0 0186.061 117.8c5.585-2.954 16.504-9.386 37.577-22.817 3.033-1.933 3.033-1.933 3.342-1.859a.703.703 0 01.442.33c.173.301.271.472-.289.97l.002.004-.023.014c-.747.655-2.609 1.868-6.854 4.632 6.016-3.3 6.577-3.16 6.941-3.07.219.055.4.19.509.377.252.437.315.967-.621 2.014.477-.12.853-.148 1.139-.082.412.096.626.339.734.525.465.806.703 1.22-13.192 9.981 14.712-8.518 14.857-8.481 15.211-8.39.18.048.336.167.429.329.448.774-.374 1.559-2.386 3.025-1.294.943-3.124 2.171-5.577 3.74 8.174-5.098 10.22-6.157 10.953-5.978a.785.785 0 01.496.367.7.7 0 01-.262.962 1005.699 1005.699 0 00-14.31 8.262c-1.615 1.017-3.256 2.057-4.856 3.069-9.542 6.04-16.508 10.387-21.396 13.231a93.824 93.824 0 00-3.932 2.815c4.347-2.57 11.758-6.944 19.15-11.27 23.387-13.687 23.74-13.591 24.188-13.474a.738.738 0 01.44.335c.094.163.185.434.086.797-.056.206-.138.509-.761 1.16 1.606-.799 2.61-1.127 3.104-1.007.253.062.46.213.583.426.373.646-.153.995-1.306 1.761a138.54 138.54 0 01-3.43 2.179c2.182-1.044 3.711-1.532 4.477-1.348.427.102.647.351.758.542.645 1.118-.013 1.825-22.821 15.323-9.556 5.655-22.22 13.15-25.67 15.934 1.904-.668 6.646-2.96 18.43-10.09 9.606-5.812 20.188-12.598 25.274-15.86 3.522-2.258 3.521-2.255 3.834-2.179a.71.71 0 01.442.331c.285.494.575.997-3.252 3.861.812-.283 1.387-.382 1.732-.299.275.068.498.23.629.457.41.713.41.713-7.156 5.671a2222.663 2222.663 0 01-15.484 10.025 6710.957 6710.957 0 01-17.036 10.914c8.827-4.733 25.376-15.229 32.733-19.895 6.528-4.14 6.53-4.141 6.903-4.048a.71.71 0 01.442.332c.5.866-.296 2.1-3.375 4.389a.878.878 0 01.826.426c.491.851 1.047 1.814-19.711 14.814a962.782 962.782 0 0017.162-10.828.706.706 0 01.546-.094.707.707 0 01.443.332c.343.597-.132.935-.919 1.495-.47.334-1.176.818-2.099 1.439-.933.626-2.08 1.388-3.467 2.301 1.938-.986 3.132-1.38 3.732-1.234a.987.987 0 01.632.458c.392.681.305.958-4.432 3.995.998-.422 1.704-.579 2.157-.474.297.07.539.244.681.49.552.955.135 1.372-12.541 9.049-3.629 2.198-8.197 4.965-11.897 7.35l24.885-14.367a.7.7 0 01.958.257c.346.599-.145.96-.958 1.559-.49.361-1.211.87-2.201 1.555a1026.886 1026.886 0 01-7.132 4.856c-3.169 2.146-7.155 4.845-10.418 7.112a421.57 421.57 0 004.452-3c7.234-4.92 10.303-6.89 11.481-6.626.261.06.476.215.603.436.409.707.428.742-7.872 6.752 6.023-4.002 7.989-5.144 8.889-4.943.239.056.437.2.555.405.331.573.331.573-3.857 3.991-1.262 1.03-3.016 2.461-4.599 3.783 1.283-.79 2.696-1.686 4.038-2.558a.702.702 0 01.99.237c.264.458.164.565-.793 1.594-.78.837-1.453 1.57-2.017 2.197 4.248-2.529 4.4-2.489 4.699-2.412a.717.717 0 01.437.332.7.7 0 01-.479 1.04c-.62.28-4.079 2.318-7.123 4.159a.71.71 0 01-.363.101z" fill="#FF5621"/><path d="M118.34 161.197a.704.704 0 01-.608-.351c-.073-.127-.136-.237-.136-.388.001-.354.351-.94 1.735-2.527-3.547 2.171-4.454 2.457-4.801 2.457-.069 0-.116-.012-.157-.022a.808.808 0 01-.482-.356c-.074-.128-.137-.237-.137-.373.001-.583 1.16-1.66 7.546-6.886a399.29 399.29 0 00-3.745 2.477c-6.451 4.304-8.766 5.74-9.826 5.74a.976.976 0 01-.217-.023.854.854 0 01-.555-.405c-.074-.128-.135-.233-.135-.357.001-.58 1.347-1.554 9.004-7.097l1.839-1.332c-1.072.719-2.143 1.448-3.125 2.116-6.901 4.694-10.263 6.875-11.673 6.875-.087 0-.166-.008-.238-.024a.944.944 0 01-.618-.447c-.073-.127-.138-.238-.138-.373 0-.707 1.754-2.072 13.114-9.792l-17.799 10.276a.698.698 0 01-.958-.256.866.866 0 01-.123-.439c0-.468.38-1.054 1.342-1.905-1.82 1.045-2.96 1.537-3.604 1.537a.929.929 0 01-.22-.024.903.903 0 01-.587-.426.83.83 0 01-.135-.422c.001-.609.893-1.543 4.851-4.203-4.726 2.954-6.692 3.983-7.542 3.983a.81.81 0 01-.712-.407c-.085-.147-.13-.27-.129-.384 0-.343.399-.605 1.28-1.186.607-.4 1.49-.975 2.589-1.689 1.116-.724 2.455-1.59 3.954-2.559-3.411 1.772-4.553 2.061-5.062 2.061-.142 0-.234-.022-.314-.041a.927.927 0 01-.594-.431.704.704 0 01.25-.954c13.726-8.136 34.919-21.191 40.029-25.51-5.097 2.315-20.322 11.776-29.015 17.177-9.855 6.123-11.057 6.835-11.53 6.835-.064 0-.114-.013-.171-.027a.727.727 0 01-.445-.335c-.085-.147-.15-.281-.15-.433 0-.529.785-1.261 4.261-3.414-1.796.846-3.06 1.289-3.75 1.289-.099 0-.187-.009-.262-.027a.982.982 0 01-.627-.455.702.702 0 01.23-.942c13.856-8.825 33.343-21.321 41.292-26.603-2.209 1.128-5.181 2.822-8.483 4.783a779.411 779.411 0 01-9.581 6.046 1419.85 1419.85 0 01-14.12 8.662c-8.815 5.558-10.003 6.228-10.492 6.228a.737.737 0 01-.186-.028.747.747 0 01-.454-.34.698.698 0 01.25-.954c3.03-1.802 6.377-3.811 9.849-5.913l1.822-1.15c-6.772 3.873-10.721 5.716-12.188 5.716a1.18 1.18 0 01-.282-.03 1.004 1.004 0 01-.66-.475.773.773 0 01-.114-.39c-.001-.732 1.13-1.855 5.424-4.664-3.011 1.837-4.367 2.499-5.005 2.499a.793.793 0 01-.678-.394c-.08-.138-.156-.269-.156-.436 0-.45.548-1.164 3.048-2.983-1.607.807-2.699 1.206-3.322 1.206-.092 0-.173-.008-.245-.026a.947.947 0 01-.609-.442.702.702 0 01.261-.961c15.175-8.63 38.157-22.294 45.156-27.809-7.676 4.236-28.833 16.66-43.598 25.415a.714.714 0 01-.535.075.706.706 0 01-.43-.328 1.03 1.03 0 01-.136-.519c0-.101.013-.211.045-.332.104-.378.504-.897 1.154-1.534-.88.359-1.525.533-1.96.533-.105 0-.197-.01-.277-.029a.963.963 0 01-.617-.45.754.754 0 01-.112-.382c-.002-.556.716-1.056 1.712-1.748.911-.635 2.256-1.507 4.11-2.667 3.454-2.161 8.199-5.023 13.222-8.052 5.643-3.403 12.353-7.449 17.677-10.799-11.395 6.566-29.347 17.036-37.968 22.077a.708.708 0 01-.534.072.7.7 0 01-.428-.327c-.074-.129-.138-.24-.139-.367 0-.494.946-1.249 5.869-4.344-2.137 1.174-3.58 1.757-4.426 1.757-.116 0-.22-.011-.315-.033a1.069 1.069 0 01-.71-.508c-.079-.136-.144-.248-.143-.374 0-.615 1.58-1.533 10.926-6.963 5.205-3.024 11.418-6.635 17.132-10.105 4.798-3.188 8.553-5.618 11.403-7.296 2.343-1.636 3.586-2.663 4.241-3.302-5.839 2.624-28.909 16.572-43.515 25.644a.702.702 0 01-.746-1.188l4.525-2.879c-3.254 1.663-4.72 2.129-5.437 2.129a1.11 1.11 0 01-.284-.032.964.964 0 01-.623-.45.703.703 0 01.23-.942c2.58-1.652 6.072-3.89 9.966-6.389-6.858 3.874-8.41 4.37-8.969 4.37a.898.898 0 01-.24-.033.807.807 0 01-.511-.379.7.7 0 01.238-.947c10.506-6.496 25.429-15.918 34.159-21.797-7.038 4.053-17.296 10.079-24.525 14.324-3.205 1.882-6.008 3.529-8.017 4.703-1.785 1.043-2.65 1.549-3.114 1.783l-.123.076-.008-.012c-.197.092-.302.12-.386.12-.054 0-.1-.012-.153-.026a.7.7 0 01-.523-.679c0-.24.124-.468.332-.597 11.141-6.886 27.595-17.273 34.966-22.377-3.922 2.27-9.784 6.008-14.514 9.025-12.533 7.992-16.794 10.574-18.193 10.574a.84.84 0 01-.739-.415c-.068-.12-.133-.232-.133-.374 0-.462.67-1.244 4.026-3.661-.984.433-1.705.646-2.193.646-.107 0-.202-.01-.287-.031a.997.997 0 01-.646-.467.702.702 0 01.234-.945c8.63-5.429 21.742-13.943 26.251-17.463-3.947 1.93-12.56 7.469-17.632 10.73-7.29 4.688-8.388 5.334-8.902 5.334a.756.756 0 01-.645-.368c-.076-.132-.15-.261-.15-.43 0-.657 1.114-1.925 7.558-6.358-1 .638-2.024 1.296-3.069 1.971-.112.072-.257.166-.458.166a.705.705 0 01-.611-.352.853.853 0 01-.131-.433c.001-.774 1.285-1.893 6.043-5.54a.761.761 0 01-.497-.364.703.703 0 01.256-.959.7.7 0 01.43-.09c.406-.193 1.44-.92 2.146-1.415 2.022-1.419 2.76-1.884 3.29-1.884a.89.89 0 01.196.022c.223.049.408.183.52.377a.819.819 0 01.134.413c0 .562-.818 1.31-3.88 3.677A430.224 430.224 0 0194.64 91.6c9.257-5.663 11.202-6.335 11.883-6.335.115 0 .194.02.266.037a.836.836 0 01.536.393.697.697 0 01-.236.946c-5.273 3.292-10.763 6.821-15.351 9.883 10.121-6.465 15.259-9.486 16.992-9.486.094 0 .178.009.253.027.262.063.477.22.603.44.074.126.144.248.144.406.001.8-1.803 2.526-14.14 10.647-.708.466-1.418.932-2.122 1.391a780.228 780.228 0 008.434-5.42c8.816-5.721 10.753-6.899 11.558-6.899a.756.756 0 01.648.376.7.7 0 01-.231.943c-9.156 5.835-22.535 14.547-29.145 19.231 3.55-2.098 8.59-5.311 12.974-8.107 13.209-8.424 17.964-11.289 19.506-11.289a.864.864 0 01.771.43c.066.114.129.222.129.36-.001.583-1.106 1.7-7.674 6.085 10.096-5.859 11.421-6.486 11.845-6.486a.725.725 0 01.572.354c.066.114.129.223.129.365 0 .868-2.35 2.961-20.833 14.78-1.561.998-3.129 1.995-4.663 2.968 8.514-5.034 18.656-11.234 26.344-16.022a.703.703 0 01.978.245.72.72 0 01.11.363c0 .374-.384.643-.785.923-.318.223-.789.541-1.39.943a605.177 605.177 0 01-4.965 3.262c-3.64 2.372-8.725 5.662-15.115 9.777-6.153 3.962-12.356 7.944-16.605 10.668 5.586-2.954 16.504-9.386 37.578-22.817 2.535-1.616 2.951-1.881 3.2-1.881.048 0 .09.01.141.022a.703.703 0 01.442.33c.075.13.135.236.135.354 0 .155-.105.333-.424.616l.003.004-.024.014c-.747.655-2.609 1.868-6.854 4.632 4.959-2.72 6.212-3.103 6.702-3.103.105 0 .175.017.239.033.22.055.401.19.509.377.094.163.161.338.161.547 0 .355-.193.809-.782 1.467a3.33 3.33 0 01.8-.117c.125 0 .238.012.339.035a1.1 1.1 0 01.734.525c.078.135.15.26.149.413 0 .766-1.773 2.274-13.34 9.568 13.279-7.688 14.69-8.407 15.099-8.407.044 0 .077.008.111.017.18.048.336.167.43.329a.813.813 0 01.118.417c-.001.657-.851 1.402-2.505 2.608-1.294.943-3.124 2.171-5.577 3.74 7.624-4.755 9.917-5.996 10.786-5.996a.7.7 0 01.167.018.785.785 0 01.496.367.705.705 0 01-.262.962 1000.053 1000.053 0 00-14.309 8.262c-1.615 1.017-3.257 2.057-4.857 3.069-9.542 6.04-16.508 10.387-21.396 13.231a93.769 93.769 0 00-3.932 2.815c4.348-2.57 11.758-6.944 19.15-11.27 21.265-12.444 23.487-13.495 24.051-13.495.056 0 .096.011.137.021a.738.738 0 01.44.335.977.977 0 01.129.491c0 .093-.012.195-.043.306-.056.206-.138.509-.761 1.16 1.391-.692 2.331-1.031 2.878-1.031a.91.91 0 01.809.45c.08.139.119.264.119.382-.001.433-.519.778-1.424 1.379-.698.463-1.729 1.119-3.153 2.006l-.278.173c1.88-.899 3.275-1.386 4.115-1.386.135 0 .256.012.362.038.427.102.648.351.758.542.08.139.14.271.14.422.001 1.068-2.982 3.077-22.961 14.901-9.556 5.655-22.22 13.15-25.67 15.934 1.904-.668 6.646-2.96 18.43-10.09 9.606-5.812 20.188-12.598 25.274-15.86 2.972-1.905 3.435-2.201 3.696-2.201.048 0 .09.01.138.022a.71.71 0 01.442.331c.075.131.151.262.151.438-.001.488-.589 1.317-3.403 3.423.626-.219 1.112-.328 1.46-.328.102 0 .193.01.272.029.275.068.498.23.629.457.077.135.14.244.141.365.001.524-1.157 1.283-7.297 5.306a2242.411 2242.411 0 01-15.483 10.025 6916.156 6916.156 0 01-17.037 10.914c8.827-4.733 25.376-15.229 32.733-19.895 5.679-3.602 6.419-4.071 6.761-4.071.051 0 .093.011.142.023a.708.708 0 01.442.332c.09.155.138.323.138.506.002.837-.987 2.006-3.513 3.883.025-.002.049-.002.072-.002a.856.856 0 01.754.428c.076.132.153.266.153.448 0 .989-2.319 3.378-19.863 14.366a966.139 966.139 0 0017.161-10.828.708.708 0 01.546-.094.707.707 0 01.443.332.74.74 0 01.113.369c.001.391-.421.692-1.032 1.126-.469.334-1.176.818-2.099 1.439-.932.626-2.08 1.388-3.467 2.301 1.677-.853 2.797-1.263 3.457-1.263.103 0 .194.01.275.029a.987.987 0 01.632.458c.083.145.145.271.145.41 0 .514-.848 1.194-4.577 3.585.799-.338 1.411-.505 1.855-.505.111 0 .212.01.302.031.297.07.54.244.681.49.084.145.145.277.145.424 0 .824-1.929 2.111-12.686 8.625-3.629 2.198-8.197 4.965-11.897 7.35l24.885-14.367a.706.706 0 01.533-.07.699.699 0 01.425.327.726.726 0 01.112.37c0 .402-.438.724-1.07 1.189-.49.361-1.211.87-2.201 1.555-1.848 1.278-4.415 3.016-7.132 4.856-3.169 2.146-7.155 4.845-10.418 7.112a421.57 421.57 0 004.452-3c6.809-4.631 9.928-6.649 11.254-6.649.083 0 .158.008.227.023.261.06.476.215.603.436.075.13.137.237.137.363-.001.558-1.232 1.482-8.009 6.389 5.59-3.714 7.686-4.965 8.677-4.965.077 0 .147.007.212.022.24.056.437.2.555.405.073.126.129.224.129.337-.001.401-.718.987-3.986 3.654-1.262 1.03-3.016 2.461-4.599 3.783 1.283-.79 2.696-1.685 4.038-2.558a.695.695 0 01.546-.095.706.706 0 01.445.332c.079.138.125.244.125.353.001.253-.249.522-.919 1.241-.78.837-1.452 1.57-2.016 2.197 3.565-2.123 4.245-2.436 4.548-2.436.058 0 .102.012.151.024a.715.715 0 01.531.681.701.701 0 01-.574.691c-.62.28-4.078 2.318-7.123 4.159a.707.707 0 01-.363.101zm6.751-4.597zm-17.269-7.14c-4.039 2.519-8.016 5.047-10.609 6.845 2.821-1.676 6.917-4.388 10.609-6.845zm17.394-12.453c-4.588 2.543-12.01 7.324-17.653 10.967a1509.09 1509.09 0 017.134-4.416c3.703-2.281 7.691-4.737 10.519-6.551zm-.299 3.262c-2.496 1.33-6.276 3.734-9.968 6.152l.386-.234c3.449-2.089 7.192-4.356 9.582-5.918zm-23-10.493a418.42 418.42 0 00-8.239 5.294 722.304 722.304 0 008.239-5.294zm33.298-18.399c-1.355.454-4.233 1.78-10.316 5.433-6.032 3.622-13.459 8.45-20.011 12.709a1611.515 1611.515 0 01-7.292 4.718c3.94-2.422 9.231-5.589 16.295-9.77 8.627-5.105 18.239-10.794 21.324-13.09zm-4.394 13.727l-.988.626a2050.12 2050.12 0 01-9.302 5.87c3.903-2.347 7.591-4.642 10.29-6.496zm-31.017-3.124c-4.29 2.593-8.457 5.131-11.199 6.892 1.382-.716 3.088-1.675 5-2.792a221.86 221.86 0 016.2-4.1zm26.803-21.995c-1.03.42-2.528 1.228-4.315 2.285-1.599 1.117-3.633 2.46-6.21 4.085a363.934 363.934 0 01-5.294 3.271 1482.918 1482.918 0 00-5.222 3.494 992.924 992.924 0 01-8.703 5.787l2.578-1.589c9.469-5.838 23.148-14.271 27.166-17.332z" fill="#FF5621"/><path d="M108.406 86.235h.467v-.007a.469.469 0 00-.473-.468l-.162.003.006.468.006-.468-.152-.003a.467.467 0 00-.474.468v.007h.468l-.009-.468c-8.596.158-16.15 3.53-21.55 8.892-5.402 5.362-8.652 12.719-8.651 20.827 0 5.019 1.246 9.748 3.443 13.896l.413-.219-.43.184c.95 2.209 3.188 7.639 5.426 14.653 1.03 3.225 1.816 6.467 2.343 9.021.264 1.277.463 2.383.596 3.226.066.422.116.778.149 1.056.033.275.048.48.047.564 0 .089-.002.185-.005.285l-.002.087c0 .729.296 1.397.775 1.877a2.636 2.636 0 001.88.783H122.894a2.655 2.655 0 002.655-2.66l-.001-.087c-.003-.101-.006-.197-.005-.285a5.54 5.54 0 01.047-.564c.23-1.956 1.286-7.662 3.087-13.304 2.239-7.013 4.477-12.443 5.427-14.652l-.43-.184.413.219a29.602 29.602 0 003.443-13.896c-.001-16.213-12.979-29.39-29.114-29.719l-.009.468h.467-.467l-.01.468c15.626.317 28.198 13.08 28.197 28.783a28.67 28.67 0 01-3.333 13.458l-.017.034c-.958 2.23-3.207 7.684-5.458 14.737-1.042 3.267-1.834 6.537-2.368 9.117a71.753 71.753 0 00-.603 3.27c-.068.43-.119.797-.154 1.091a6.693 6.693 0 00-.054.674c0 .103.003.208.006.314v.001l.001.057c0 .475-.191.904-.503 1.218a1.706 1.706 0 01-1.217.507H92.517a1.723 1.723 0 01-1.72-1.725l.002-.057c.004-.108.005-.214.005-.315 0-.163-.019-.378-.053-.674-.243-2.044-1.301-7.758-3.126-13.478-2.25-7.053-4.5-12.507-5.457-14.737l-.017-.035a28.656 28.656 0 01-3.334-13.457c0-7.856 3.144-14.968 8.375-20.163 5.231-5.194 12.548-8.466 20.908-8.62a.468.468 0 00.46-.469v-.006h-.468l-.007.468.153.003h.012l.161-.003-.005-.468h-.468v.007c0 .254.204.463.458.468l.01-.468z" fill="#141414"/><path d="M118.941 90.293a24.6 24.6 0 00-2.68-1.024.702.702 0 00-.421 1.339c.866.271 1.711.6 2.526.965a.702.702 0 00.575-1.28zM128.991 97.983c-.042-.064-2.499-3.957-7.911-6.62a.702.702 0 10-.618 1.26 20.67 20.67 0 015.588 4.01 16.882 16.882 0 011.338 1.521c.145.188.252.336.321.435l.075.112.017.026.003.004.081-.05-.081.05.081-.05-.081.05a.701.701 0 101.187-.748zM106.476 147.186v-15.021h-.701l.693.11c.002-.023.172-1.094.172-2.45-.003-1.121-.106-2.432-.573-3.561-.236-.563-.572-1.09-1.066-1.486-.493-.398-1.146-.633-1.877-.63-.989.001-1.824.228-2.438.737a2.456 2.456 0 00-.692.933c-.152.358-.221.748-.22 1.151.003.93.353 1.928.982 2.986.632 1.058 1.555 2.177 2.767 3.309a7.2 7.2 0 005.011 1.973c1.91-.003 3.742-.675 5.199-1.641a8.788 8.788 0 001.873-1.65c.505-.605.883-1.255 1.07-1.937a5.728 5.728 0 00.217-1.513c-.002-.759-.181-1.421-.539-1.93a2.063 2.063 0 00-.673-.619 1.796 1.796 0 00-.887-.233c-.457-.001-.906.172-1.297.468-.392.297-.738.716-1.037 1.254a2.608 2.608 0 00-.234.633c-.104.408-.18.914-.245 1.525-.191 1.83-.259 4.603-.26 7.774 0 9.652.651 22.918.651 22.923a.702.702 0 001.402-.068l-.028-.587c-.124-2.665-.622-13.873-.621-22.268-.001-2.398.04-4.567.14-6.229.05-.83.115-1.535.195-2.067.039-.266.082-.488.125-.655.041-.166.088-.279.101-.3.225-.405.46-.667.656-.815.199-.149.349-.185.452-.185a.396.396 0 01.199.053c.099.055.22.172.322.392.101.218.175.533.175.934 0 .328-.049.712-.167 1.144-.115.426-.386.92-.793 1.406-.61.73-1.52 1.44-2.572 1.953-1.052.515-2.245.836-3.424.835-1.423-.004-2.818-.448-4.054-1.596-1.133-1.058-1.974-2.087-2.519-3.002-.548-.913-.788-1.711-.784-2.267 0-.245.041-.443.109-.604.104-.238.258-.412.543-.562.284-.148.711-.252 1.295-.251.453.003.744.122 1.001.323.192.152.362.366.509.639.221.409.379.949.474 1.532.095.582.13 1.204.129 1.779a16.585 16.585 0 01-.15 2.193l-.004.03-.002.008-.008.109v15.021a.702.702 0 001.403 0zM96.97 78.848l1.62 5.092a.701.701 0 101.337-.426l-1.62-5.091a.701.701 0 10-1.337.425zM136.858 89.192l-5.323 4.167a.701.701 0 10.864 1.104l5.324-4.165a.702.702 0 00-.865-1.106zM116.856 74.76l-2.006 8.811a.701.701 0 101.368.312l2.006-8.812a.701.701 0 00-1.368-.312zM123.748 164.494H91.669a.744.744 0 01-.744-.744v-.366c0-.411.333-.744.744-.744h32.079c.411 0 .744.333.744.744v.366a.744.744 0 01-.744.744z" fill="#141414"/><path d="M123.748 164.494v-.234H91.67a.512.512 0 01-.51-.51v-.366a.51.51 0 01.51-.51h32.078a.51.51 0 01.511.51v.366a.512.512 0 01-.511.51v.468a.978.978 0 00.979-.978v-.366a.978.978 0 00-.979-.978H91.67a.977.977 0 00-.979.978v.366c0 .54.438.978.979.978h32.078v-.234zM123.748 168.674H91.669a.744.744 0 01-.744-.744v-.366c0-.411.333-.745.744-.745h32.079c.411 0 .744.334.744.745v.366a.744.744 0 01-.744.744z" fill="#141414"/><path d="M123.748 168.674v-.234H91.67a.51.51 0 01-.51-.51v-.366c0-.282.228-.51.51-.511h32.078a.512.512 0 01.511.511v.366a.51.51 0 01-.511.51v.468a.978.978 0 00.979-.978v-.366a.978.978 0 00-.979-.978H91.67a.978.978 0 00-.979.978v.366c0 .54.438.978.979.978h32.078v-.234zM123.748 172.855H91.669a.744.744 0 01-.744-.744v-.367c0-.41.333-.744.744-.744h32.079c.411 0 .744.334.744.744v.367a.744.744 0 01-.744.744z" fill="#141414"/><path d="M123.748 172.855v-.234H91.67a.512.512 0 01-.51-.51v-.367c0-.281.228-.509.51-.51h32.078a.512.512 0 01.511.51v.367a.512.512 0 01-.511.51v.468a.978.978 0 00.979-.978v-.367a.978.978 0 00-.979-.978H91.67a.978.978 0 00-.979.978v.367c0 .54.438.978.979.978h32.078v-.234zM108.692 175.084H92.22l4.74 6.527a4.39 4.39 0 003.554 1.812h14.489a4.393 4.393 0 003.562-1.821l4.706-6.518h-14.579z" fill="#141414"/><path d="M108.692 175.084v-.234H92.22a.233.233 0 00-.189.372l4.74 6.526a4.627 4.627 0 003.743 1.909h14.489a4.628 4.628 0 003.751-1.918l4.707-6.518a.234.234 0 00-.19-.371h-14.579v.468h14.122l-4.439 6.147a4.157 4.157 0 01-3.372 1.724h-14.489a4.16 4.16 0 01-3.365-1.716l-4.47-6.155h16.013v-.234z" fill="#141414"/><path d="M144.055 105.145s-2.995 3.268-5.446 4.901c-2.45 1.634-4.159 3.794-1.905 4.901 1.351.665 3.267-.272 3.267-.272s-2.995.817-3.54 3.539c-.544 2.724 5.446 1.634 5.446 1.634s-4.357 2.996-2.995 4.085c1.361 1.089 4.084.272 5.446.272 1.361 0 8.168-4.357 9.802-4.357 1.633 0 4.9 3.54 4.9 6.263s4.357 2.45 4.902-5.99c.544-8.441-1.634-15.521-5.174-17.699-3.539-2.178-14.703 2.723-14.703 2.723z" fill="#fff"/><path d="M144.056 105.145l-.173-.158-.131.142c-.601.642-3.163 3.319-5.271 4.722-.836.558-1.59 1.176-2.143 1.806-.551.63-.916 1.273-.92 1.916a1.47 1.47 0 00.295.89c.199.27.494.501.888.694.395.194.824.262 1.236.262 1.161-.003 2.221-.528 2.237-.534l-.164-.435a6.15 6.15 0 00-1.634.779c-.847.564-1.785 1.498-2.074 2.939a1.97 1.97 0 00-.039.38c-.001.357.119.669.324.908.308.357.771.557 1.286.68.517.121 1.095.161 1.654.161 1.293 0 2.485-.218 2.493-.219l-.043-.23-.132-.193c-.005.004-.824.567-1.652 1.302-.414.368-.83.779-1.15 1.191-.317.414-.553.825-.558 1.251a.895.895 0 00.351.716c.614.488 1.43.616 2.259.618.623 0 1.261-.076 1.843-.15.581-.073 1.109-.145 1.49-.145.229-.002.494-.079.827-.202 1.15-.429 3.052-1.471 4.857-2.408.901-.468 1.776-.91 2.509-1.232.365-.16.696-.291.973-.38.276-.09.502-.135.636-.134.324-.004.808.192 1.321.554.773.538 1.62 1.427 2.264 2.424.646.995 1.084 2.1 1.082 3.05 0 .519.145.959.41 1.275.263.318.649.498 1.07.496.789-.005 1.668-.584 2.396-1.819.728-1.239 1.313-3.154 1.492-5.926.057-.872.084-1.729.084-2.567 0-3.668-.522-6.989-1.45-9.651-.929-2.661-2.26-4.671-3.918-5.695-.703-.431-1.638-.591-2.696-.593-2.38.002-5.423.83-7.885 1.653a56.884 56.884 0 00-4.338 1.648l-.045.02-.034.036.173.158.094.214.326-.139a58.467 58.467 0 014.912-1.798c2.242-.704 4.806-1.325 6.797-1.324 1.011-.001 1.868.162 2.451.523 1.518.932 2.816 2.849 3.721 5.451.907 2.6 1.425 5.874 1.424 9.497 0 .829-.027 1.675-.082 2.536-.175 2.721-.751 4.569-1.43 5.72-.678 1.155-1.45 1.593-1.992 1.589a.903.903 0 01-.712-.329c-.18-.214-.3-.542-.3-.975-.005-1.454-.85-3.047-1.892-4.301-.522-.627-1.096-1.167-1.654-1.557-.559-.387-1.096-.634-1.589-.638-.254.002-.552.078-.911.2-1.242.431-3.182 1.474-4.975 2.411a56.63 56.63 0 01-2.45 1.233c-.349.161-.661.292-.915.381-.252.09-.454.134-.551.132-.435 0-.97.076-1.549.148-.578.074-1.198.146-1.784.146-.783.001-1.492-.132-1.967-.515a.423.423 0 01-.176-.351c-.005-.23.166-.59.461-.965.437-.565 1.115-1.17 1.68-1.626.283-.229.538-.421.722-.556l.217-.157.078-.054.899-.618-1.073.195c-.001 0-.07.013-.199.033-.385.059-1.279.179-2.21.179-.714.001-1.451-.073-1.977-.281-.264-.103-.471-.237-.607-.397a.884.884 0 01-.212-.604c0-.087.009-.183.03-.288.256-1.281 1.088-2.116 1.875-2.642a6.169 6.169 0 011.38-.681l.089-.028.028-.008-.061-.226-.103-.21-.041.019c-.199.092-1.099.47-1.991.468-.361 0-.718-.061-1.03-.215-.345-.169-.576-.358-.718-.552a.996.996 0 01-.203-.612c-.004-.451.286-1.022.803-1.608.514-.586 1.24-1.184 2.051-1.724 2.49-1.662 5.481-4.932 5.488-4.938l-.172-.158.094.214-.094-.214z" fill="#141414"/><path d="M142.503 114.622l10.868-4.061-.082-.219.049.229.011-.003c.062-.011.373-.067.854-.067.749 0 1.905.134 3.178.768 1.273.636 2.669 1.771 3.9 3.799.067.111.21.146.321.079a.233.233 0 00.079-.321c-1.272-2.097-2.739-3.302-4.091-3.975a7.62 7.62 0 00-3.387-.818c-.59 0-.951.078-.964.081l-.017.003-10.883 4.067a.234.234 0 00.164.438zM144.365 117.9l9.802-1.633-.038-.231.015.234.022-.001.076-.001c.327-.001 1.417.052 2.722.674 1.304.622 2.827 1.807 4.037 4.104a.233.233 0 10.414-.217c-1.253-2.384-2.863-3.651-4.25-4.31-1.388-.66-2.548-.719-2.923-.719-.079 0-.123.002-.128.003l-.012.001-9.814 1.635a.234.234 0 00.077.461z" fill="#141414"/><path d="M156.308 124.205l-7.352 1.633 4.356 17.426s3.812 7.624 4.902 10.892c1.088 3.267 12.252 14.158 12.252 14.158l13.07-12.525s-5.99-7.079-6.263-8.713c-.272-1.633-1.361-20.693-1.361-23.416 0-2.722-5.446-9.257-5.446-9.257s-2.235-3.205-3.324-8.65c-1.089-5.446-6.091-7.684-8.813-7.412-2.723.273-10.19 1.086-13.185 3.265-2.995 2.178-5.718 4.901-2.994 5.718 4.522 1.355 11.923-4.673 15.493-.507 1.634 1.906 3.565 10.308 3.838 11.397 0 0-1.361 5.174-5.173 5.991 0 0-3.812.817 0 0z" fill="#fff"/><path d="M156.257 123.976l-7.586 1.686 4.421 17.684.012.023c0 .001.237.475.611 1.241 1.121 2.291 3.471 7.199 4.277 9.62.299.883 1.208 2.171 2.414 3.664 3.615 4.459 9.894 10.584 9.897 10.588l.162.158 13.392-12.834-.142-.168-.257-.306a121.961 121.961 0 01-3.338-4.175 43.345 43.345 0 01-1.773-2.485c-.24-.369-.441-.706-.587-.988-.146-.281-.235-.514-.256-.646a22.385 22.385 0 01-.134-1.344c-.195-2.385-.501-7.303-.758-11.919-.258-4.615-.466-8.94-.466-10.115-.003-.756-.36-1.69-.877-2.702-1.552-3.023-4.618-6.698-4.623-6.705l-.179.15.191-.134-.023-.034c-.237-.354-2.25-3.463-3.263-8.528-.526-2.636-1.955-4.547-3.606-5.79-1.652-1.243-3.521-1.83-4.978-1.831-.167 0-.327.007-.482.023-1.364.136-3.918.408-6.512.92-2.596.515-5.227 1.258-6.787 2.387-1.07.779-2.108 1.627-2.887 2.444-.39.409-.715.81-.948 1.198-.231.388-.376.764-.377 1.133-.002.301.107.595.329.825.221.232.539.405.96.532.5.15 1.029.213 1.577.213 1.645-.002 3.467-.562 5.282-1.111 1.814-.551 3.619-1.092 5.183-1.09 1.317.003 2.442.366 3.34 1.409.373.431.801 1.303 1.21 2.364 1.236 3.193 2.374 8.118 2.578 8.938l.227-.057-.226-.059-.015.053a11.895 11.895 0 01-1.273 2.834c-.805 1.289-2.013 2.573-3.708 2.934l-1.694.363a.234.234 0 10.098.457l1.694-.363a.234.234 0 10-.098-.457l-1.694.363a.234.234 0 10.098.457l1.694-.363c1-.214 1.837-.714 2.525-1.335 2.056-1.867 2.817-4.806 2.825-4.824l.015-.058-.014-.058c-.135-.54-.688-2.92-1.411-5.401-.361-1.242-.766-2.51-1.185-3.592-.421-1.085-.846-1.978-1.291-2.5-.992-1.163-2.295-1.577-3.695-1.573-1.668.001-3.503.561-5.319 1.111-1.813.551-3.608 1.092-5.146 1.09-.513 0-.995-.059-1.443-.193-.37-.111-.613-.255-.755-.406a.694.694 0 01-.2-.503c-.002-.24.103-.548.31-.892.62-1.041 2.126-2.356 3.709-3.504 1.435-1.049 4.035-1.803 6.602-2.307 2.569-.507 5.11-.778 6.469-.914.138-.014.283-.021.435-.02 1.333-.002 3.127.551 4.697 1.736 1.571 1.186 2.924 2.992 3.428 5.509 1.099 5.489 3.35 8.719 3.362 8.738l.005.008.007.008s.084.1.232.283c.518.64 1.817 2.283 2.983 4.056.583.887 1.132 1.806 1.532 2.643.401.836.647 1.596.645 2.125 0 1.379.272 6.817.578 12.13.154 2.656.315 5.277.456 7.337.07 1.03.135 1.92.191 2.605.056.686.102 1.16.139 1.383.044.256.177.554.372.916.683 1.255 2.162 3.22 3.479 4.887a130.035 130.035 0 002.464 3.022l.179-.151-.162-.169-13.07 12.525.162.169.163-.167-.481-.473c-1.074-1.063-3.776-3.768-6.327-6.56-1.274-1.396-2.511-2.815-3.485-4.057-.974-1.24-1.686-2.32-1.901-2.975-.553-1.656-1.778-4.378-2.87-6.697a215.994 215.994 0 00-2.044-4.225l-.209.104.227-.056-4.298-17.193 7.117-1.582a.234.234 0 00-.102-.457zM128.89 98.898a.504.504 0 01.656-.07l1.116.776a.504.504 0 01-.577.829l-1.115-.776a.505.505 0 01-.127-.702l.047-.057z" fill="#141414"/><path d="M128.889 98.898l.171.16a.27.27 0 01.352-.037l1.115.775h.001a.271.271 0 01.067.377v.001a.267.267 0 01-.222.115.27.27 0 01-.155-.048l-1.115-.776a.271.271 0 01-.068-.377l-.192-.133.181.147.047-.057-.182-.147.171.16-.171-.16-.181-.148-.047.057-.005.007-.006.007a.742.742 0 00.186 1.028l1.115.776a.74.74 0 001.029-.186l-.001.001a.739.739 0 00-.185-1.028l-1.115-.775a.734.734 0 00-.96.1l-.006.007-.005.006.181.148z" fill="#141414"/><path d="M130.171 99.795a1.154 1.154 0 011.5-.157l3.488 1.8 34.252 22.532a2.708 2.708 0 11-3.092 4.447l-33.244-24.525-2.721-2.36a1.152 1.152 0 01-.183-1.737z" fill="#CCC"/><path d="M130.171 99.795l.171.16a.92.92 0 011.195-.125l.013.008 3.491 1.802 34.242 22.525.128-.195-.133.192a2.47 2.47 0 01.619 3.444 2.468 2.468 0 01-3.444.619l-.133.192.139-.188-33.237-24.52-2.724-2.362-.011-.007a.917.917 0 01-.23-1.28v-.001l.085-.103v-.001l-.171-.16-.17-.16a1.389 1.389 0 00.219 2.089l.134-.192-.153.177 2.728 2.366 33.255 24.532.002.002a2.934 2.934 0 001.679.527c.929 0 1.846-.441 2.416-1.264v.001a2.94 2.94 0 00-.736-4.095l-.003-.002-34.265-22.54-3.499-1.806-.107.208.134-.192a1.384 1.384 0 00-1.804.19l.17.159z" fill="#141414"/><path d="M169.411 123.97l-9.884-6.502c-1.572.512-2.7 1.884-2.7 3.501 0 .16.015.317.036.472l9.457 6.976a2.708 2.708 0 103.091-4.447z" fill="#141414"/><path d="M169.411 123.97l.128-.196-9.978-6.564-.107.035c-1.656.538-2.86 1.993-2.861 3.724 0 .174.016.342.038.504l.014.097 9.538 7.037.003.002a2.936 2.936 0 004.095-.737v.001a2.934 2.934 0 00.526-1.677 2.937 2.937 0 00-1.263-2.418l-.002-.002-.003-.002-.128.196-.134.192a2.473 2.473 0 01.62 3.444 2.47 2.47 0 01-3.445.619l-.133.192.139-.188-9.456-6.977-.139.189.232-.032a3.13 3.13 0 01-.035-.44c0-1.503 1.05-2.793 2.539-3.279l-.072-.222-.129.195 9.885 6.502.128-.195-.134.192.134-.192z" fill="#141414"/><path d="M158.213 154.156c-2.995-4.357-6.807-15.52-8.44-17.699-1.634-2.178-6.014-6.995-7.648-11.896-1.634-4.901-2.699-8.797-2.699-12.881 0-4.085 3.509-4.791 6.231-.434 2.724 4.356 6.022 11.053 6.022 11.053s2.178 2.723 6.534 1.906" fill="#fff"/><path d="M158.406 154.023c-1.476-2.143-3.18-6.021-4.709-9.625-.765-1.803-1.489-3.539-2.125-4.964-.637-1.428-1.178-2.535-1.613-3.117-.826-1.1-2.324-2.843-3.821-4.923-1.496-2.079-2.987-4.494-3.791-6.907-1.633-4.896-2.688-8.766-2.688-12.807 0-1.055.243-1.856.623-2.378.383-.523.887-.782 1.488-.785.525 0 1.134.209 1.77.674.636.465 1.297 1.183 1.919 2.179 1.356 2.169 2.86 4.929 4.023 7.145.582 1.108 1.078 2.08 1.43 2.775.351.695.556 1.111.557 1.112l.011.023.016.02c.011.015.44.548 1.293 1.081.853.534 2.134 1.066 3.83 1.065a8.8 8.8 0 001.637-.157.233.233 0 10-.086-.459 8.411 8.411 0 01-1.551.149c-1.598-.001-2.787-.498-3.582-.994a5.835 5.835 0 01-.89-.68 3.91 3.91 0 01-.219-.221l-.052-.059-.013-.014-.002-.003-.183.146.21-.103c-.002-.004-3.299-6.701-6.033-11.074-.648-1.036-1.343-1.799-2.039-2.308-.695-.509-1.396-.764-2.046-.765-.745-.002-1.413.347-1.866.978-.456.631-.712 1.528-.713 2.653.001 4.126 1.077 8.049 2.712 12.955.83 2.488 2.345 4.932 3.855 7.032 1.511 2.098 3.019 3.853 3.827 4.931.382.507.93 1.612 1.56 3.026.948 2.126 2.101 4.966 3.298 7.686 1.198 2.72 2.436 5.317 3.577 6.978a.235.235 0 00.386-.265z" fill="#141414"/><path d="M142.839 109.974l.91 1.82s-.207 0-1.659.829c-1.451.83-2.12 2.052-2.12 2.052s-1.405-3.918-.161-5.162c.374-.374.766-.541 1.131-.594.786-.112 1.544.345 1.899 1.055z" fill="#fff"/><path d="M142.84 109.974l-.209.105.91 1.819.209-.104v-.234c-.073.004-.132.017-.38.124-.245.109-.665.319-1.395.736-1.511.866-2.197 2.123-2.21 2.143l.206.112.22-.079-.028-.08c-.126-.369-.636-1.974-.634-3.293-.002-.669.136-1.243.446-1.545.341-.339.68-.48.999-.527.069-.01.137-.015.204-.015.599-.001 1.171.378 1.453.943l.209-.105.209-.104c-.357-.712-1.074-1.2-1.871-1.202-.089 0-.18.007-.27.02-.412.058-.858.252-1.264.659-.454.461-.58 1.155-.582 1.876.002 1.631.686 3.519.688 3.531l.176.49.25-.457.006-.009c.066-.118.719-1.207 2.025-1.952.722-.412 1.131-.616 1.353-.715.11-.049.174-.071.203-.081l.019-.005-.032-.168v.171l.032-.003-.032-.168v.171h.378l-1.079-2.158-.209.104z" fill="#141414"/><path d="M180.696 150.22s-7.211 2.136-10.95 5.876c-3.739 3.739-6.944 8.011-6.944 8.011l6.677 7.746s5.608-6.41 9.347-9.348c3.739-2.938 8.012-5.341 8.012-5.341l-6.142-6.944z" fill="#fff"/><path d="M180.696 150.22l-.067-.224c-.006.002-1.817.538-4.101 1.545-2.283 1.009-5.041 2.484-6.947 4.389-3.754 3.755-6.962 8.032-6.966 8.037l-.113.151 6.975 8.091.178-.202.247-.28c1.119-1.262 5.827-6.492 9.069-9.038 1.86-1.461 3.857-2.793 5.388-3.758a80.468 80.468 0 012.405-1.456l.189-.108.253-.142-6.434-7.272-.143.043.067.224-.175.155 6.143 6.944.174-.155-.114-.204c-.006.003-4.285 2.409-8.042 5.361-1.888 1.484-4.227 3.825-6.101 5.799a131.354 131.354 0 00-3.278 3.579l.176.154.177-.153-6.677-7.745-.177.152.187.141s.049-.066.144-.189c.661-.865 3.52-4.54 6.778-7.798 1.832-1.834 4.55-3.297 6.806-4.292a41.704 41.704 0 012.871-1.137 40.9 40.9 0 01.862-.291c.203-.065.312-.097.312-.097l-.066-.224-.175.155.175-.155z" fill="#141414"/><path d="M187.372 206.572l-21.099-33.918s5.342-8.012 9.882-12.018 10.416-5.075 10.416-5.075l26.38 25.317" fill="#141414"/><path d="M187.571 206.449l-21.098-33.918-.199.123.194.13c.001-.001.083-.124.238-.35 1.078-1.581 5.667-8.151 9.604-11.623 2.24-1.977 4.82-3.235 6.839-3.996a25.422 25.422 0 012.493-.798 20.181 20.181 0 01.908-.213 1.27 1.27 0 01.063-.012l-.042-.231-.161.169 26.38 25.317a.235.235 0 00.331-.007.235.235 0 00-.007-.331l-26.467-25.399-.118.021c-.019.006-5.926 1.074-10.528 5.13-2.292 2.023-4.767 5.034-6.675 7.545-1.907 2.509-3.245 4.516-3.247 4.518l-.083.126 21.178 34.046a.234.234 0 00.322.075.235.235 0 00.075-.322zM146.758 120.116c.139-.019.284-.035.434-.051a.233.233 0 10-.047-.465c-.154.015-.304.033-.45.052a.236.236 0 00-.2.264.235.235 0 00.263.2zM142.882 122.183l-.088-.015.087.018.001-.003-.088-.015.087.018c.003-.009.067-.337.476-.742.408-.404 1.169-.892 2.587-1.19a.234.234 0 10-.096-.458c-1.533.321-2.392.871-2.866 1.362-.475.49-.556.912-.562.948a.235.235 0 00.462.077zM145.686 121.019l.129.044-.125-.054-.004.01.129.044-.125-.054-.012.022c-.064.108-.47.638-2.169 1.316a.234.234 0 10.174.434c1.067-.426 1.666-.804 2.007-1.088.34-.283.423-.477.44-.525a.234.234 0 00-.444-.149zM145.785 118.865a8.123 8.123 0 00-1.082.258c-.609.188-1.362.49-1.949.977a.235.235 0 00-.03.33c.083.099.23.112.33.03.506-.424 1.211-.714 1.786-.89a8.031 8.031 0 01.94-.23l.074-.013a.233.233 0 00-.069-.462z" fill="#141414"/><path d="M80.01 72.578s4.418.358 7.213 1.29c2.794.932 5.548.954 5.039-1.504-.306-1.475-2.221-2.413-2.221-2.413s2.484 1.864 4.967.622c2.484-1.241-2.053-5.301-2.053-5.301s5.038 1.6 5.063-.144c.023-1.743-2.293-3.39-3.128-4.465-.836-1.075-8.454-3.775-9.456-5.064-1.004-1.29-.215-6.042 1.934-7.713 2.15-1.672-.74-4.944-7.737-.192-6.998 4.751-11.249 10.817-10.795 14.948.453 4.131 11.175 9.936 11.175 9.936z" fill="#fff"/><path d="M80.011 72.578l-.018.232s.272.022.728.07c1.365.144 4.37.522 6.428 1.21 1.091.363 2.178.593 3.097.594.637-.001 1.2-.11 1.627-.394.43-.282.69-.764.684-1.375 0-.186-.022-.386-.066-.599-.174-.824-.77-1.456-1.306-1.893-.54-.436-1.03-.677-1.04-.682l-.244.397c.02.012 1.443 1.09 3.284 1.095.613 0 1.273-.123 1.928-.451.297-.148.521-.342.665-.574.146-.231.208-.493.208-.757-.002-.485-.195-.985-.467-1.475-.818-1.462-2.4-2.87-2.407-2.879l-.157.175-.07.222c.011.002 2.121.679 3.678.682.427-.001.816-.048 1.132-.2.157-.076.298-.183.399-.328a.909.909 0 00.158-.516v-.03c0-.486-.16-.951-.4-1.388-.363-.655-.91-1.257-1.44-1.798-.53-.54-1.046-1.021-1.337-1.397-.143-.18-.366-.341-.667-.529-1.046-.644-3.035-1.506-4.884-2.356-.922-.424-1.808-.843-2.511-1.224a10.39 10.39 0 01-.898-.535c-.24-.162-.415-.313-.496-.42-.236-.294-.386-.923-.382-1.692 0-.943.205-2.094.596-3.144.39-1.05.968-1.998 1.68-2.549.51-.395.787-.9.787-1.404.002-.46-.238-.898-.664-1.197-.426-.3-1.032-.478-1.802-.479-1.493.002-3.614.665-6.334 2.51-3.347 2.274-6.072 4.846-7.966 7.376-1.892 2.531-2.962 5.019-2.965 7.15 0 .218.012.432.035.642.129 1.127.918 2.287 2 3.43 1.627 1.712 3.947 3.377 5.864 4.621 1.916 1.244 3.429 2.062 3.432 2.064l.043.023.05.004.018-.233.112-.205s-.165-.09-.458-.256c-1.024-.58-3.596-2.092-5.953-3.903-1.178-.905-2.301-1.884-3.148-2.852-.848-.966-1.409-1.923-1.495-2.745a5.438 5.438 0 01-.032-.59c-.002-1.972 1.014-4.39 2.871-6.87 1.857-2.48 4.546-5.022 7.855-7.269 2.669-1.813 4.718-2.43 6.071-2.429.699 0 1.209.163 1.531.393.324.232.465.515.467.815 0 .328-.18.703-.606 1.035-.815.636-1.42 1.652-1.832 2.755-.41 1.104-.624 2.298-.625 3.307.003.824.134 1.526.48 1.98.158.2.4.388.718.595 1.102.717 3.116 1.609 4.957 2.448.92.419 1.793.822 2.477 1.178.342.177.636.342.863.488.225.144.384.277.442.354.442.566 1.22 1.236 1.886 1.983.332.372.635.76.85 1.151.216.391.343.781.343 1.162v.024a.441.441 0 01-.075.255c-.067.097-.195.183-.396.241-.199.059-.46.086-.75.086-.715 0-1.607-.163-2.312-.329a20.53 20.53 0 01-.88-.228c-.218-.062-.346-.103-.346-.103l-1.04-.33.814.727.116.108c.262.246.924.89 1.514 1.645.295.378.572.783.77 1.174.2.392.32.769.318 1.079 0 .194-.043.36-.136.508-.093.149-.241.286-.478.405a3.8 3.8 0 01-1.719.402c-.826 0-1.582-.25-2.128-.503a5.98 5.98 0 01-.82-.459l-.043-.03-.012-.01-.14.187-.103.21.018.01c.095.048.56.296 1.026.693.469.395.927.938 1.05 1.547.039.187.057.355.057.504-.006.492-.174.777-.478.987-.306.207-.782.315-1.366.314-.84 0-1.891-.217-2.949-.57-2.84-.945-7.258-1.3-7.267-1.302l-.019.234.112-.206-.112.206z" fill="#141414"/><path d="M88.445 67.985L78.569 61.9l-.124.2.15-.18-.003-.003c-.102-.089-2.084-1.84-2.082-5.214 0-1.095.207-2.365.76-3.814a.234.234 0 00-.437-.167c-.571 1.497-.791 2.826-.791 3.981 0 1.84.558 3.233 1.118 4.163.56.93 1.121 1.4 1.136 1.413l.012.01 9.891 6.095a.234.234 0 10.246-.398zM89.89 64.502l-7.307-6.735-.158.172.175-.155-.012-.014c-.138-.165-1.368-1.714-1.367-4.288 0-1.149.242-2.504.94-4.044a.234.234 0 10-.426-.193c-.723 1.597-.982 3.023-.982 4.237.001 2.911 1.476 4.588 1.497 4.612l.007.009 7.316 6.743a.234.234 0 00.317-.344z" fill="#141414"/><path d="M87.535 51.205l5.802 4.8L104.42 41.87s7.157-3.216 9.042-6.098c1.885-2.882 3.491-18.395 3.491-18.395l-17.933-2.469s-1.83 9.09-2.942 10.319c-1.111 1.227-18.857 9.166-21.007 10.837-2.15 1.672-3.965 9.982-3.965 9.982s-1.29 4.827-3.75 9.806c-4.095 8.288-3.364 7.653-1.478 9.635 1.886 1.982 6.473 6.018 10.032 7.045 3.558 1.027 7.983 4.704 6.99.212-1.019-4.609-11.007-6.543-9.91-11.918.501-2.46 5.948-9.143 6.641-10.027 0 0 4.92-2.1 7.905.407 0 0 2.985 2.508 0 0z" fill="#fff"/><path d="M87.387 51.385l5.988 4.954 11.23-14.326-.185-.144.096.214a48.291 48.291 0 003.835-1.98c2.037-1.175 4.311-2.692 5.307-4.203.256-.394.49-.965.718-1.675.795-2.482 1.493-6.677 1.998-10.266.505-3.586.812-6.558.813-6.56l.023-.225-18.375-2.529-.043.216c0 .001-.114.566-.303 1.436a105.409 105.409 0 01-1.216 5.063 32.686 32.686 0 01-.73 2.378c-.119.33-.235.619-.345.848a2.173 2.173 0 01-.292.483c-.04.046-.167.147-.35.267-.697.459-2.22 1.258-4.126 2.209-2.862 1.429-6.6 3.212-9.812 4.785a189.26 189.26 0 00-4.25 2.135c-1.173.614-2.03 1.097-2.44 1.414-.594.467-1.112 1.322-1.594 2.35-1.435 3.082-2.453 7.758-2.456 7.766l.229.05-.226-.06-.06.213c-.278.984-1.532 5.214-3.674 9.55-1.09 2.206-1.839 3.781-2.319 4.95-.479 1.17-.694 1.935-.696 2.541-.004.535.188.94.478 1.286.29.35.667.667 1.099 1.122.953 1.002 2.578 2.511 4.417 3.906 1.84 1.394 3.89 2.673 5.72 3.203 1.107.319 2.324.912 3.434 1.429.555.259 1.085.498 1.568.676.483.177.917.295 1.302.296.316.002.621-.09.83-.327.208-.237.296-.572.296-1 0-.315-.048-.69-.147-1.137-.26-1.167-1.043-2.144-2.042-3.033-1.5-1.332-3.51-2.487-5.13-3.75-.81-.63-1.52-1.285-2.021-1.988-.502-.705-.796-1.45-.796-2.288 0-.245.025-.499.08-.763.11-.559.536-1.432 1.123-2.407.88-1.465 2.119-3.182 3.202-4.613 1.083-1.43 2.008-2.574 2.27-2.909l-.183-.144.091.215.082-.033c.383-.152 2.08-.773 3.932-.772 1.265 0 2.59.286 3.649 1.176l1.326 1.114c.047.04.11.06.17.055a.234.234 0 00.13-.412l-1.326-1.115a.233.233 0 10-.3.358l1.326 1.114c.047.04.11.06.17.055a.234.234 0 00.13-.412c.001 0-.33-.28-1.326-1.115-1.172-.985-2.618-1.286-3.95-1.286-2.233.002-4.18.838-4.196.843l-.056.023-.037.048c-.343.438-1.882 2.335-3.397 4.429-.758 1.048-1.51 2.146-2.108 3.141-.598.998-1.042 1.882-1.181 2.554-.06.293-.089.579-.089.856 0 1.271.605 2.349 1.489 3.294 1.328 1.422 3.299 2.597 5.016 3.829.86.614 1.654 1.241 2.271 1.906.618.666 1.055 1.366 1.224 2.13.094.426.137.77.136 1.038 0 .367-.08.578-.178.69-.1.11-.24.166-.48.168-.286.001-.683-.098-1.141-.267-1.381-.506-3.29-1.61-5.034-2.116-1.728-.497-3.752-1.75-5.566-3.126-1.816-1.376-3.428-2.875-4.361-3.855l-.08-.085.08.085c-.45-.473-.83-.797-1.077-1.097-.245-.304-.368-.558-.371-.989-.002-.49.189-1.215.66-2.363.472-1.148 1.218-2.718 2.306-4.92 2.472-5.004 3.764-9.842 3.767-9.85l.001-.006.001-.005s.028-.128.082-.357c.187-.802.686-2.837 1.37-4.845.343-1.004.731-2.002 1.147-2.831.413-.83.862-1.491 1.282-1.814.244-.191.754-.499 1.442-.875 2.415-1.321 7.056-3.54 11.211-5.559a264.09 264.09 0 005.537-2.748c.751-.388 1.388-.73 1.871-1.011.242-.141.445-.266.607-.376.163-.111.281-.201.368-.296.174-.194.325-.484.488-.861.56-1.314 1.182-3.694 1.67-5.761.49-2.064.84-3.806.84-3.808l-.23-.046-.031.232 17.933 2.468.032-.231-.232-.025-.073.671c-.166 1.502-.608 5.3-1.215 9.033-.302 1.865-.646 3.716-1.016 5.252-.367 1.532-.772 2.76-1.151 3.336-.89 1.371-3.136 2.903-5.149 4.055a48.578 48.578 0 01-3.486 1.816c-.198.093-.307.142-.307.142l-.053.024-10.97 13.992-5.617-4.647a.233.233 0 10-.298.36zM84.388 88.385a.506.506 0 01-.457-.476l-.073-1.356a.505.505 0 111.008-.055l.073 1.357a.504.504 0 01-.477.531h-.074z" fill="#141414"/><path d="M84.388 88.385l.022-.233a.272.272 0 01-.246-.255l-.072-1.357v-.016a.27.27 0 01.256-.27h.016a.27.27 0 01.269.257l.072 1.356v.015a.27.27 0 01-.255.27l.012.234.004-.234-.073-.001-.005.234.022-.233-.022.233-.004.233.073.002h.017a.739.739 0 00.7-.738l-.001-.04-.073-1.356a.738.738 0 00-.736-.7l-.042.002h.001a.738.738 0 00-.699.736l.001.041.073 1.356c.02.371.309.663.669.696l.008.001h.009l.004-.233z" fill="#141414"/><path d="M84.31 86.821a1.154 1.154 0 01-1.045-1.087l-.72-3.858-3.24-40.871a2.707 2.707 0 115.409-.29l1.047 41.3-.192 3.596a1.154 1.154 0 01-1.26 1.21z" fill="#CCC"/><path d="M84.31 86.821l.022-.233a.92.92 0 01-.833-.866l-.001-.016-.72-3.86-3.239-40.86-.233.019.234-.013a2.474 2.474 0 114.941-.264l.234-.012-.234.006 1.047 41.289-.193 3.6.001.013.002.05a.92.92 0 01-.871.917l-.05.002-.086-.005-.02.233-.022.233c.042.004.085.006.128.006l.074-.002a1.388 1.388 0 001.314-1.384l-.002-.076-.233.013.233.013.194-3.606-1.049-41.311v-.004a2.94 2.94 0 00-3.095-2.78 2.942 2.942 0 00-2.78 3.095v.002l3.24 40.887.722 3.87.23-.043-.233.013a1.387 1.387 0 001.257 1.307l.021-.233z" fill="#141414"/><path d="M79.306 41.005l.934 11.794c1.37.927 3.145.975 4.421-.018.127-.098.242-.206.351-.318l-.298-11.748a2.707 2.707 0 10-5.408.29z" fill="#141414"/><path d="M79.306 41.005l-.233.018.944 11.907.093.063a4.291 4.291 0 002.395.751 3.72 3.72 0 002.3-.778c.139-.107.262-.222.375-.34l.07-.07-.302-11.85v-.002a2.94 2.94 0 00-3.095-2.781 2.942 2.942 0 00-2.78 3.095v.005l.233-.018.234-.012a2.474 2.474 0 114.941-.264l.234-.013-.234.006.298 11.747.234-.006-.168-.163a3.199 3.199 0 01-.326.297l-.004.003.004-.003c-.59.459-1.294.679-2.014.68-.732 0-1.48-.23-2.133-.671l-.131.193.233-.018-.935-11.794-.233.018.234-.012-.234.012z" fill="#141414"/><path d="M113.462 35.771c-1.555 5.053-8.306 12.006-9.498 14.454-3.685 7.565-6.284 11.693-9.15 15.992-1.162 1.743-2.423 1.992-3.188 2.619-1.122.918-1.698 1.894-3.615 3.384-3.223 2.507-5.935.17-4.167-4.653 1.767-4.824 5.029-11.538 5.029-11.538s.812-3.391-2.507-6.329" fill="#fff"/><path d="M113.238 35.703c-.757 2.468-2.821 5.464-4.848 8.131-1.014 1.335-2.017 2.59-2.845 3.669-.827 1.08-1.476 1.973-1.793 2.62-3.68 7.557-6.27 11.67-9.133 15.964a5.55 5.55 0 01-1.675 1.662c-.538.348-1.046.564-1.467.906-.578.473-1.01.956-1.53 1.496a18.282 18.282 0 01-2.08 1.885c-.866.674-1.676.97-2.337.97-.602-.004-1.084-.234-1.438-.674-.353-.44-.574-1.11-.573-1.984-.001-.758.165-1.668.543-2.7.88-2.402 2.136-5.284 3.172-7.562.517-1.14.98-2.128 1.312-2.832.333-.704.536-1.121.537-1.123l.011-.023.006-.024c.003-.014.094-.398.094-1.017.002-1.262-.387-3.52-2.673-5.541a.234.234 0 10-.31.35c2.17 1.923 2.513 4.018 2.515 5.191a5.207 5.207 0 01-.07.852l-.009.044-.002.012.227.054-.21-.102c-.002.004-3.264 6.718-5.039 11.56-.393 1.074-.572 2.035-.572 2.86 0 .953.238 1.73.676 2.278.435.548 1.076.85 1.803.848.8-.001 1.7-.35 2.624-1.068.97-.753 1.604-1.381 2.13-1.93.528-.549.945-1.013 1.49-1.458.343-.284.848-.507 1.423-.876a6.016 6.016 0 001.81-1.794c2.87-4.301 5.478-8.445 9.166-16.019.279-.577.922-1.47 1.744-2.54 1.234-1.61 2.878-3.633 4.361-5.733 1.483-2.102 2.809-4.275 3.407-6.215a.234.234 0 10-.447-.137z" fill="#141414"/><path d="M84.569 70.573l.878-1.836s.127.164 1.673.8c1.546.637 2.921.414 2.921.414s-2.23 3.515-3.976 3.296c-.524-.065-.897-.272-1.163-.528-.57-.551-.676-1.43-.334-2.146z" fill="#fff"/><path d="M84.568 70.573l.211.1.878-1.835-.21-.1-.185.142c.047.056.094.095.33.225.237.126.66.329 1.439.648.946.39 1.827.47 2.395.47.397 0 .642-.04.652-.04l-.037-.232-.198-.124s-.03.048-.09.136a13.69 13.69 0 01-1.431 1.787 6.215 6.215 0 01-1.068.905c-.364.234-.721.37-1.03.368-.045 0-.088-.002-.13-.008-.478-.06-.797-.241-1.03-.464a1.542 1.542 0 01-.458-1.12c0-.256.058-.518.173-.757l-.211-.101-.21-.101a2.224 2.224 0 00-.22.96c0 .533.197 1.065.601 1.455.299.29.726.522 1.296.592.063.008.126.012.189.012.506-.002.996-.236 1.456-.56 1.373-.975 2.548-2.843 2.558-2.854l.279-.44-.514.084-.034.004c-.076.01-.268.03-.543.03a5.892 5.892 0 01-2.218-.434c-.768-.316-1.18-.514-1.394-.629a1.923 1.923 0 01-.19-.111l-.012-.01-.002.004.002-.003-.002.002.002-.002-.132.139.151-.117-.02-.022-.131.139.151-.117-.232-.3-1.042 2.178.211.101zM97.502.234L93.785 24.38s4.485 3.942 10.445 5.014c5.959 1.072 16.825 2.67 16.825 2.67l9.524-31.83" fill="#141414"/><path d="M97.271.199L93.534 24.47l.096.084c.017.012 4.521 3.98 10.558 5.07 5.967 1.073 16.831 2.671 16.833 2.671l.2.03L130.802.3a.234.234 0 10-.448-.134l-9.523 31.83.224.068.034-.231c-.002 0-.679-.1-1.79-.267-3.335-.5-10.564-1.6-15.028-2.403-2.941-.529-5.528-1.77-7.378-2.88a25.218 25.218 0 01-2.174-1.458 18.008 18.008 0 01-.731-.58l-.049-.042-.154.176.23.035L97.734.27a.234.234 0 10-.462-.071z" fill="#141414"/><path d="M119.148 26.66a1.838 1.838 0 11-3.675 0 1.838 1.838 0 013.675 0z" fill="#fff"/><path d="M119.149 26.66h-.468a1.371 1.371 0 01-1.369 1.37 1.372 1.372 0 01-1.37-1.37 1.372 1.372 0 011.37-1.37 1.371 1.371 0 011.369 1.37h.936a2.305 2.305 0 10-4.61 0 2.305 2.305 0 004.61 0h-.468zM88.803 64.442c-.1-.1-.202-.203-.306-.312a.234.234 0 00-.339.322c.108.113.213.22.317.323a.234.234 0 10.328-.333zM92.815 66.233c-.026.012-.219.1-.57.1-.553-.002-1.51-.213-2.833-1.333a.234.234 0 10-.302.356c1.383 1.174 2.457 1.445 3.134 1.444.492 0 .767-.141.793-.156a.234.234 0 00-.222-.411zM90.175 64.733l-.042-.118.031.121.011-.003-.042-.118.031.121s.028-.007.095-.007c.228-.001.913.095 2.3.907a.234.234 0 00.237-.403c-1.43-.836-2.184-.97-2.537-.971a.753.753 0 00-.24.03.234.234 0 00.156.441zM88.412 65.978c.006.005.347.33.868.695.523.365 1.223.774 1.969.938a.234.234 0 10.1-.457c-.645-.14-1.308-.517-1.8-.864a8.246 8.246 0 01-.759-.6l-.055-.051a.234.234 0 10-.323.339z" fill="#141414"/><path d="M89.918 144.52s.424 4.412 1.396 7.192c.973 2.78 1.037 5.533-1.428 5.061-1.48-.284-2.445-2.185-2.445-2.185s1.9 2.456.695 4.957c-1.205 2.502-5.332-1.974-5.332-1.974s1.675 5.014-.067 5.064c-1.743.05-3.425-2.241-4.512-3.061-1.087-.82-3.9-8.396-5.204-9.38-1.304-.984-6.044-.125-7.683 2.049-1.64 2.174-4.954-.666-.307-7.733 4.647-7.067 10.649-11.409 14.786-11.017 4.138.392 10.1 11.027 10.1 11.027z" fill="#fff"/><path d="M89.918 144.52l-.233.022c.003.01.422 4.421 1.41 7.247.38 1.082.614 2.16.614 3.011 0 .57-.107 1.031-.313 1.328-.208.293-.495.459-.99.464a2.5 2.5 0 01-.476-.049c-.652-.122-1.233-.627-1.641-1.119a5.953 5.953 0 01-.599-.868l-.03-.056-.01-.018-.208.106-.186.143.01.013c.109.141 1.04 1.462 1.037 3.036 0 .533-.104 1.095-.377 1.664-.117.242-.255.394-.405.488a.938.938 0 01-.519.139c-.355.002-.798-.151-1.251-.399-.68-.368-1.38-.935-1.903-1.409a16.218 16.218 0 01-.871-.851l-.74-.801.346 1.034.03.093c.137.424.686 2.249.683 3.502 0 .37-.05.686-.148.879a.523.523 0 01-.168.208.434.434 0 01-.25.074l-.049.001c-.755.006-1.568-.514-2.317-1.169-.752-.653-1.428-1.414-1.998-1.846-.09-.065-.25-.26-.426-.537-.624-.977-1.523-2.961-2.4-4.798-.44-.92-.875-1.805-1.276-2.52-.2-.358-.391-.673-.573-.931-.183-.258-.351-.459-.528-.594-.44-.326-1.105-.448-1.885-.451-1.013 0-2.223.226-3.343.653-1.119.429-2.15 1.056-2.783 1.893-.33.437-.709.623-1.04.622-.301-.001-.589-.146-.824-.477-.234-.331-.4-.854-.4-1.571-.002-1.353.595-3.388 2.34-6.038 2.213-3.366 4.735-6.109 7.204-8.003 2.469-1.896 4.885-2.935 6.858-2.932.172 0 .34.008.506.023.94.084 2.065.789 3.187 1.827 1.687 1.555 3.376 3.829 4.636 5.712a59.27 59.27 0 011.946 3.109l.15.26.203-.114-.233.022.233-.022.204-.114a57.02 57.02 0 00-3.514-5.392c-1.01-1.361-2.15-2.736-3.308-3.804-1.16-1.066-2.331-1.838-3.46-1.949a5.54 5.54 0 00-.55-.026c-2.136.003-4.622 1.098-7.142 3.029-2.52 1.933-5.072 4.711-7.312 8.117-1.775 2.701-2.414 4.806-2.416 6.295 0 .788.18 1.406.485 1.84.302.434.743.678 1.207.676.511 0 1.02-.286 1.413-.808.55-.732 1.51-1.332 2.577-1.738 1.065-.407 2.232-.623 3.176-.623.726-.003 1.318.136 1.603.358.124.091.305.303.5.595.694 1.029 1.622 3.033 2.486 4.86.433.915.852 1.786 1.225 2.481.187.347.362.649.525.892.164.245.308.429.468.551.505.38 1.196 1.15 1.972 1.825.78.674 1.657 1.28 2.624 1.285l.063-.001a.913.913 0 00.501-.157c.213-.148.34-.375.415-.625.076-.253.103-.54.104-.847-.001-.786-.186-1.714-.37-2.453a18.593 18.593 0 00-.368-1.29l-.221.074-.172.159c.004.004.64.694 1.495 1.39.427.347.909.697 1.4.964.491.265.991.454 1.474.455.27.001.535-.063.77-.211.234-.148.43-.377.575-.681a4.266 4.266 0 00.423-1.867c-.005-1.874-1.132-3.315-1.144-3.335l-.393.249c.005.01.253.498.697 1.03.444.529 1.085 1.116 1.912 1.278.2.039.388.058.564.058.61.005 1.09-.246 1.375-.667.286-.418.395-.969.396-1.593-.001-.935-.25-2.049-.641-3.166-.478-1.364-.827-3.154-1.053-4.597a51.582 51.582 0 01-.332-2.539l-.005-.049-.024-.043-.204.114z" fill="#141414"/><path d="M85.845 152.77l-6.241-9.8-.011-.012c-.012-.014-.48-.555-1.395-1.095-.915-.539-2.283-1.077-4.079-1.077-1.186 0-2.557.234-4.104.851a.234.234 0 00.173.435c1.498-.597 2.807-.818 3.931-.818 1.701 0 2.983.507 3.841 1.012.43.253.752.506.966.693.107.094.186.172.239.225l.057.06.014.015.002.004.178-.153-.198.125 6.233 9.786c.069.109.213.141.322.071a.232.232 0 00.072-.322zM82.329 154.195l-6.851-7.214-.009-.008c-.024-.02-1.673-1.428-4.507-1.429-1.242 0-2.707.272-4.348 1.045a.235.235 0 00-.112.312.236.236 0 00.311.112c1.583-.746 2.976-1.001 4.149-1.001a7.43 7.43 0 013.112.664c.36.166.635.332.82.454.092.062.161.113.206.147l.05.04.014.011.153-.178-.17.161 6.843 7.206a.234.234 0 10.339-.322z" fill="#141414"/><path d="M68.66 152.361l4.886 5.73-13.97 11.291s-7.634 3.792-10.471 5.745c-2.837 1.953-18.308 3.928-18.308 3.928l-2.894-17.87s9.045-2.045 10.246-3.186c1.201-1.14 13.546-15.702 15.186-17.877 1.64-2.174 9.921-4.112 9.921-4.112s3.715-1.213 7.862-4.905c4.15-3.693 9.49-2.468 11.5-.612 2.01 1.857 7.482 7.002 8.561 10.545 1.08 3.542 1.615 7.356-1.053 6.368-4.425-1.641-6.705-10.909-12.064-9.733-2.452.539-9.053 6.085-9.927 6.79 0 0-2.027 4.95.524 7.898 0 0 2.552 2.947 0 0z" fill="#fff"/><path d="M68.481 152.513l4.73 5.547-13.783 11.14.147.182-.104-.209c-.001 0-1.91.949-4.177 2.142-2.267 1.195-4.884 2.63-6.322 3.62-.322.222-.861.464-1.546.701-2.4.833-6.575 1.634-10.137 2.221-1.782.295-3.413.536-4.599.704-.592.084-1.073.149-1.406.194l-.517.068.03.232.23-.038-2.893-17.869-.231.038.051.228c.002-.001 2.265-.512 4.683-1.168 1.208-.328 2.455-.691 3.48-1.047.514-.177.971-.352 1.344-.522.373-.172.659-.33.849-.508.164-.156.485-.506.944-1.02 1.598-1.795 4.803-5.536 7.79-9.07 2.988-3.535 5.75-6.852 6.477-7.816.362-.485 1.165-1.012 2.157-1.49 1.49-.721 3.402-1.358 4.937-1.811a59.98 59.98 0 011.924-.533c.482-.124.77-.191.77-.191l.01-.003.01-.003c.02-.007 3.763-1.231 7.945-4.953 1.917-1.705 4.084-2.332 6.051-2.333 2.191-.003 4.133.792 5.133 1.72 1.004.926 2.869 2.672 4.615 4.623 1.745 1.948 3.368 4.116 3.882 5.817.5 1.633.877 3.327.876 4.536.001.554-.082 1.001-.24 1.279a.792.792 0 01-.28.305.808.808 0 01-.423.105c-.182 0-.409-.043-.68-.144-.983-.363-1.881-1.142-2.74-2.123-1.29-1.471-2.483-3.382-3.806-4.94-.663-.779-1.36-1.471-2.128-1.974-.768-.502-1.613-.814-2.55-.813-.314 0-.64.035-.972.108-.67.15-1.548.606-2.536 1.219-1.48.918-3.186 2.19-4.607 3.298-1.42 1.109-2.557 2.058-2.88 2.319l-.048.038-.023.056c-.005.015-.78 1.898-.781 4.075 0 1.368.31 2.867 1.345 4.064l1.134 1.31c.04.046.099.076.16.08a.234.234 0 00.194-.386l-1.134-1.31a.234.234 0 00-.354.306l1.134 1.31c.04.046.099.076.16.08a.234.234 0 00.194-.386l-1.134-1.31c-.936-1.08-1.231-2.455-1.231-3.758 0-1.033.187-2.012.374-2.73a11.952 11.952 0 01.342-1.089l.03-.079-.216-.089.147.182c.44-.355 2.303-1.914 4.364-3.452 1.03-.768 2.108-1.531 3.076-2.132.966-.601 1.833-1.039 2.39-1.159.302-.067.592-.097.872-.097 1.107 0 2.076.483 2.993 1.263 1.373 1.169 2.59 2.997 3.85 4.688 1.264 1.688 2.57 3.253 4.218 3.869.31.115.589.173.843.173.249.001.475-.057.664-.172.287-.172.475-.458.587-.796.113-.34.159-.74.16-1.188-.002-1.3-.392-3.014-.896-4.673-.566-1.84-2.22-4.017-3.982-5.991-1.763-1.971-3.639-3.726-4.646-4.656-1.118-1.03-3.145-1.841-5.45-1.844-2.066-.001-4.356.665-6.362 2.452a27.793 27.793 0 01-5.441 3.805 20.55 20.55 0 01-1.71.812c-.204.084-.362.145-.47.184l-.12.044-.039.013.073.222-.053-.228c-.005.001-2.08.487-4.367 1.247-1.144.38-2.34.829-3.362 1.323-1.021.497-1.868 1.028-2.327 1.63-.809 1.073-4.31 5.263-7.748 9.315a752.574 752.574 0 01-4.778 5.581c-.676.779-1.262 1.449-1.717 1.959-.453.51-.78.864-.916.993-.11.107-.37.263-.721.421-1.236.564-3.602 1.247-5.644 1.781-1.022.267-1.966.499-2.653.663-.688.165-1.118.262-1.119.263l-.214.048 2.965 18.31.224-.029c.002 0 3.872-.494 8.1-1.233 2.115-.37 4.32-.801 6.177-1.262.93-.231 1.773-.47 2.477-.714.705-.245 1.27-.492 1.657-.758 1.398-.963 4.016-2.401 6.275-3.591 1.13-.595 2.173-1.13 2.932-1.515.759-.386 1.233-.622 1.235-.623l.023-.011 14.177-11.458-5.042-5.913a.234.234 0 00-.356.304zM105.788 148.662a.507.507 0 00-.483-.45l-1.357-.052a.505.505 0 10-.039 1.009l1.357.052a.504.504 0 00.524-.485l-.002-.074z" fill="#141414"/><path d="M105.788 148.662l.232-.025a.738.738 0 00-.706-.658l-1.357-.053h-.029a.74.74 0 00-.738.71v-.001l-.001.031a.74.74 0 00.711.737l1.358.052h.029a.738.738 0 00.737-.709v-.009l-.002-.082-.001-.009-.001-.009-.232.025-.234.007.002.075.234-.008-.234-.009a.27.27 0 01-.269.26h-.011l-1.358-.052a.271.271 0 01-.261-.269l.001-.011v-.002.001a.271.271 0 01.27-.261h.011l1.357.053a.272.272 0 01.26.242l.232-.026-.234.007.234-.007z" fill="#141414"/><path d="M104.224 148.608a1.153 1.153 0 00-1.103-1.029l-3.868-.663-40.915-2.632a2.707 2.707 0 10-.21 5.412l41.31.435 3.594-.247a1.154 1.154 0 001.192-1.276z" fill="#CCC"/><path d="M104.223 148.608l.233-.025a1.387 1.387 0 00-1.326-1.238l-.01.234.04-.23-3.88-.666-40.93-2.633h-.004l-.115-.002a2.942 2.942 0 00-2.938 2.829v-.001l-.002.119a2.94 2.94 0 002.829 2.935h.003l41.322.435 3.603-.247-.016-.234-.009.234.054.001c.742 0 1.357-.586 1.386-1.334v.001l.001-.055c0-.05-.003-.1-.008-.148l-.233.025-.232.025.005.098-.001.036v.001a.919.919 0 01-.918.883H103.028l-3.597.246-41.3-.435-.002.234.009-.234a2.473 2.473 0 01-2.38-2.467l.003-.1v-.001a2.473 2.473 0 012.47-2.378l.098.002.009-.234-.015.234 40.902 2.631 3.871.663h.015a.922.922 0 01.88.821l.001.005-.001-.005.232-.025z" fill="#141414"/><path d="M58.338 144.284l11.807.76c.947 1.355 1.021 3.13.048 4.42a3.397 3.397 0 01-.314.356l-11.75-.124a2.707 2.707 0 11.21-5.412z" fill="#141414"/><path d="M58.338 144.284l-.015.233 11.806.76.015-.233-.191.133c.462.662.703 1.427.703 2.175a3.25 3.25 0 01-.65 1.972 3.153 3.153 0 01-.292.33l.165.166.002-.234-11.75-.124-.002.234.009-.234a2.473 2.473 0 01-2.38-2.467l.003-.1v-.001a2.473 2.473 0 012.47-2.378l.098.001.009-.233-.015.233.015-.233.008-.234-.115-.002a2.941 2.941 0 00-2.938 2.829v-.001l-.002.119a2.94 2.94 0 002.829 2.935h.003l11.852.125.07-.07c.115-.116.229-.241.334-.38a3.715 3.715 0 00.744-2.253c0-.849-.272-1.705-.787-2.443l-.064-.092-11.922-.767h-.004l-.008.234z" fill="#141414"/><path d="M49.105 175.127c5.014-1.675 14.779-8.294 17.395-9.049 2.616-.756 9.013-1.965 13.269-4.894 4.255-2.93 7.451-5.399 9.91-8.66 2.46-3.261.083-5.938-4.714-4.098-4.797 1.839-11.462 5.199-11.462 5.199s-3.379.863-6.366-2.412" fill="#fff"/><path d="M49.178 175.349c2.547-.852 6.24-2.929 9.64-4.888 1.698-.98 3.32-1.93 4.678-2.681 1.354-.751 2.458-1.302 3.068-1.477 1.294-.374 3.556-.867 6.024-1.634 2.47-.767 5.152-1.806 7.312-3.293 4.26-2.932 7.48-5.416 9.965-8.711.692-.918 1.028-1.809 1.03-2.6.002-.725-.295-1.364-.837-1.799-.54-.437-1.306-.674-2.242-.674-.844 0-1.83.192-2.936.616-4.815 1.846-11.48 5.207-11.483 5.209l.105.209-.058-.227-.013.003a4.593 4.593 0 01-.98.093c-1.19-.003-3.234-.35-5.141-2.439a.233.233 0 10-.346.315c2.005 2.201 4.209 2.594 5.486 2.591.675 0 1.095-.106 1.11-.11l.024-.006.023-.011c.001-.001.416-.21 1.114-.553 2.097-1.03 6.744-3.264 10.327-4.637 1.061-.408 1.995-.586 2.768-.586.859 0 1.515.219 1.948.57.432.353.66.834.662 1.436.001.655-.284 1.458-.934 2.319-2.434 3.227-5.606 5.681-9.857 8.607-2.095 1.443-4.739 2.473-7.186 3.232-2.448.76-4.693 1.249-6.015 1.631-.697.203-1.796.761-3.164 1.516-2.048 1.133-4.677 2.707-7.262 4.153-2.584 1.446-5.129 2.765-6.978 3.383a.234.234 0 00.148.443z" fill="#141414"/><path d="M87.98 149.107l-1.822.906s.166.124.825 1.66c.66 1.537.458 2.915.458 2.915s3.48-2.282 3.237-4.025c-.074-.523-.286-.893-.546-1.155-.56-.562-1.44-.654-2.152-.301z" fill="#fff"/><path d="M87.98 149.107l-.103-.209-2.162 1.073.302.228.103-.136-.126.115.023.021.103-.136-.126.115.008.011c.05.065.266.408.767 1.577.392.913.467 1.774.467 2.292a4.614 4.614 0 01-.023.467l-.003.029-.076.515.435-.285c.006-.005.826-.542 1.655-1.303.414-.382.83-.818 1.15-1.281.319-.462.547-.954.55-1.458 0-.07-.005-.141-.015-.211-.079-.57-.317-.993-.612-1.288a2.005 2.005 0 00-1.43-.578c-.338 0-.679.078-.99.233l.103.209.105.21c.246-.123.516-.185.781-.185.412.001.808.148 1.1.441.227.23.412.546.48 1.023.007.048.01.097.01.146.002.354-.175.773-.466 1.192-.434.63-1.107 1.252-1.669 1.708a14.947 14.947 0 01-.932.699l-.076.052.128.195.231.034c.002-.009.032-.219.032-.564 0-.562-.08-1.485-.506-2.477-.332-.773-.54-1.193-.67-1.428-.134-.235-.173-.28-.229-.327l-.14.187.103.209 1.823-.905-.105-.21z" fill="#141414"/><path d="M37.177 157.336s4.471 6.047 5.205 11.284c.734 5.236.72 10.578.72 10.578l-13.648 3.276s-.619-8.494-1.835-13.091c-1.217-4.597-3.181-9.089-3.181-9.089l12.74-2.958z" fill="#fff"/><path d="M37.178 157.336l-.188.139s.068.091.19.265c.43.609 1.517 2.21 2.574 4.224 1.058 2.013 2.084 4.442 2.398 6.688.704 5.025.718 10.161.718 10.525v.02l.233.001-.054-.228-13.649 3.277.055.228.233-.017c-.001-.008-.616-8.497-1.842-13.135-1.223-4.619-3.191-9.116-3.193-9.122l-.215.093.053.228 12.74-2.958-.053-.228-.188.139.188-.139-.053-.228-13.014 3.022.113.258c0 .001.122.278.324.769.607 1.473 1.938 4.855 2.845 8.286.603 2.275 1.062 5.544 1.368 8.236.153 1.347.268 2.551.345 3.417.077.867.115 1.394.116 1.395l.02.275 14.095-3.384v-.205c0-.376-.012-5.524-.722-10.59-.376-2.669-1.69-5.506-2.906-7.687a38.08 38.08 0 00-2.343-3.703l-.091-.124-.15.035.053.228z" fill="#141414"/><path d="M37.8 167.887c-1.213-5.932-5.26-10.322-5.26-10.322l-32.306 5.14v36.496l38.22-15.768s.56-9.613-.654-15.546z" fill="#141414"/><path d="M37.8 167.887l.229-.046c-1.232-6.009-5.306-10.418-5.318-10.435l-.085-.092L0 162.505v37.046l38.679-15.958.008-.147c0-.003.13-2.218.13-5.181-.001-3.215-.151-7.306-.788-10.424l-.23.046-.228.048c.625 3.055.778 7.132.778 10.33a107.236 107.236 0 01-.109 4.765l-.02.389.234.014-.09-.217L.469 198.852v-35.948l32.108-5.108-.037-.231-.172.158.043.048c.437.488 4.041 4.674 5.16 10.164l.23-.048z" fill="#141414"/><path d="M29.15 183.742a1.432 1.432 0 11-2.864-.001 1.432 1.432 0 012.863.001zM33.158 182.024a1.431 1.431 0 11-2.863 0 1.431 1.431 0 012.863 0z" fill="#fff"/><path d="M79.074 154.513a14.011 14.011 0 00-.327-.313.235.235 0 00-.33.014.233.233 0 00.013.33c.11.102.216.203.316.302a.234.234 0 00.328-.333zM81.011 159.046c.014-.026.144-.289.144-.757.001-.675-.273-1.759-1.49-3.15a.234.234 0 10-.352.307c1.16 1.331 1.373 2.296 1.374 2.843 0 .19-.026.332-.05.423a.897.897 0 01-.032.098l-.009.02a.234.234 0 00.415.216zM78.614 156.064a.72.72 0 00-.027.22c.001.346.136 1.098 1.009 2.542a.234.234 0 00.4-.243c-.849-1.4-.942-2.082-.941-2.299l.004-.074.002-.008-.127-.031.123.042.004-.011-.127-.031.123.042a.234.234 0 10-.443-.149zM79.942 154.76l.051.054c.242.255 1.244 1.408 1.503 2.536.029.126.155.204.28.175a.234.234 0 00.175-.281c-.175-.743-.594-1.438-.967-1.954s-.703-.852-.708-.858a.234.234 0 00-.334.328z" fill="#141414"/></svg>